<svg xmlns="http://www.w3.org/2000/svg" xmlns:xlink="http://www.w3.org/1999/xlink" width="500" zoomAndPan="magnify" viewBox="0 0 375 374.999991" height="500" preserveAspectRatio="xMidYMid meet" version="1.0"><defs><clipPath id="c412b391fd"><path d="M 57 0 L 317.933594 0 L 317.933594 375 L 57 375 Z M 57 0 " clip-rule="nonzero"/></clipPath></defs><g clip-path="url(#c412b391fd)"><path fill="#ffffff" d="M 317.847656 127.050781 C 317.621094 119.324219 316.796875 111.601562 315.222656 104.023438 C 310.121094 79.050781 297.820312 56.25 279.671875 38.175781 C 255.070312 13.574219 222.296875 0 187.496094 0 C 150.894531 0 115.796875 15.523438 91.195312 42.523438 C 78.820312 56.023438 69.597656 71.625 63.820312 88.800781 C 59.320312 102.148438 57.070312 116.175781 57.070312 130.351562 L 57.070312 244.574219 C 57.070312 316.5 115.570312 375 187.496094 375 C 259.421875 375 317.921875 316.5 317.921875 244.574219 L 317.921875 130.425781 C 317.847656 129.300781 317.847656 128.175781 317.847656 127.050781 Z M 279.671875 182.773438 C 278.472656 182.625 277.347656 183.449219 277.195312 184.726562 C 276.820312 187.800781 275.621094 196.273438 274.945312 198.601562 L 274.722656 199.425781 C 273.445312 203.851562 269.472656 217.199219 264.671875 226.425781 C 263.695312 228.375 262.796875 230.101562 262.046875 231.824219 C 261.144531 233.625 260.320312 235.351562 259.496094 237 C 256.871094 241.875 254.921875 242.324219 254.394531 242.398438 C 254.171875 242.398438 254.019531 242.398438 253.945312 242.324219 C 257.394531 233.25 260.546875 223.125 262.722656 216.074219 C 263.921875 212.175781 265.195312 208.125 265.496094 207.449219 C 266.695312 205.425781 271.269531 190.875 272.621094 186.523438 C 272.996094 185.324219 272.320312 184.125 271.195312 183.75 C 269.996094 183.375 268.796875 184.050781 268.421875 185.175781 C 265.644531 194.023438 262.347656 204 261.671875 205.199219 C 261.144531 206.101562 260.472656 208.273438 258.445312 214.726562 C 256.121094 222.375 252.597656 233.699219 248.847656 243.074219 C 248.847656 243.074219 248.847656 243.074219 248.847656 243.148438 C 248.695312 243.523438 248.546875 243.898438 248.394531 244.273438 C 247.644531 246.074219 246.222656 249.449219 244.945312 249.824219 C 244.570312 249.898438 244.046875 249.675781 243.671875 249.375 C 243.671875 249.375 243.597656 249.300781 243.597656 249.300781 C 237.746094 245.625 244.871094 222.300781 247.644531 213.523438 C 248.246094 211.574219 248.769531 209.925781 249.070312 208.726562 C 249.222656 208.125 249.445312 207.449219 249.445312 206.773438 C 253.722656 201.523438 255.894531 197.699219 258.070312 193.949219 C 259.347656 191.773438 260.472656 189.675781 262.046875 187.5 C 262.722656 186.523438 262.496094 185.101562 261.445312 184.425781 C 260.472656 183.75 259.046875 183.976562 258.371094 185.023438 C 256.722656 187.425781 255.519531 189.601562 254.171875 191.851562 C 251.996094 195.675781 249.746094 199.574219 245.097656 205.125 C 241.121094 209.550781 237.222656 214.726562 233.394531 219.75 C 230.019531 224.25 226.796875 228.449219 224.019531 231.449219 C 220.421875 235.351562 219.144531 235.425781 218.996094 235.425781 C 218.996094 235.425781 218.921875 235.351562 218.769531 235.125 C 213.972656 227.851562 222.296875 216.074219 231.070312 203.550781 C 234.972656 198 239.019531 192.226562 242.320312 186.300781 C 242.320312 186.300781 242.320312 186.300781 242.320312 186.226562 C 243.597656 183.898438 254.621094 163.648438 247.421875 155.550781 C 245.921875 153.898438 244.121094 153 242.097656 152.925781 C 237.972656 152.773438 233.546875 156 228.296875 160.949219 C 227.246094 162 226.121094 163.050781 224.996094 164.101562 C 215.769531 173.101562 209.320312 178.648438 204.296875 173.925781 C 203.097656 172.800781 203.019531 172.273438 208.121094 166.800781 C 212.171875 162.449219 217.722656 156.523438 222.371094 147.074219 L 222.671875 146.476562 C 223.796875 144.148438 224.847656 141.976562 226.421875 139.726562 C 228.972656 135.976562 233.472656 130.800781 245.847656 124.273438 C 255.820312 118.949219 277.644531 114.375 296.921875 110.398438 C 301.945312 109.351562 306.746094 108.300781 311.246094 107.324219 C 311.246094 107.476562 311.320312 107.625 311.320312 107.851562 C 311.394531 108.300781 311.472656 108.675781 311.546875 109.125 C 311.621094 109.726562 311.769531 110.324219 311.847656 110.851562 C 311.921875 111.300781 311.996094 111.75 312.070312 112.199219 C 312.144531 112.800781 312.222656 113.324219 312.296875 113.925781 C 312.371094 114.375 312.445312 114.824219 312.445312 115.273438 C 312.519531 115.875 312.597656 116.398438 312.671875 117 C 312.746094 117.449219 312.746094 117.898438 312.820312 118.351562 C 312.894531 118.949219 312.894531 119.550781 312.972656 120.074219 C 312.972656 120.523438 313.046875 120.976562 313.046875 121.351562 C 313.121094 121.949219 313.121094 122.550781 313.195312 123.226562 C 313.195312 123.601562 313.269531 124.050781 313.269531 124.425781 C 313.269531 125.101562 313.347656 125.773438 313.347656 126.449219 C 313.347656 126.824219 313.347656 127.125 313.347656 127.5 C 313.347656 128.550781 313.421875 129.523438 313.421875 130.574219 L 313.421875 147.375 C 304.347656 145.949219 298.121094 146.625 294.445312 149.398438 C 292.347656 150.976562 291.144531 153.226562 290.847656 156 C 290.320312 161.699219 279.597656 208.949219 274.796875 217.726562 C 273.597656 219.976562 271.871094 222.824219 270.445312 224.625 C 274.496094 215.550781 277.722656 204.75 278.847656 200.851562 L 279.070312 200.023438 C 280.046875 196.875 281.320312 186.601562 281.472656 185.476562 C 281.695312 184.050781 280.871094 182.925781 279.671875 182.773438 Z M 254.996094 285.675781 C 249.070312 295.949219 241.722656 303 239.546875 304.949219 L 135.746094 304.949219 C 133.644531 303 126.222656 295.949219 120.296875 285.675781 C 118.269531 282.148438 116.621094 278.699219 115.347656 275.25 L 195.371094 275.25 C 196.570312 275.25 197.621094 274.273438 197.621094 273 C 197.621094 271.726562 196.644531 270.75 195.371094 270.75 L 113.996094 270.75 C 111.597656 261.898438 111.597656 253.125 113.996094 244.574219 L 155.171875 244.574219 C 156.371094 244.574219 157.421875 243.601562 157.421875 242.324219 C 157.421875 241.050781 156.445312 240.074219 155.171875 240.074219 L 115.496094 240.074219 C 115.644531 239.625 115.796875 239.25 116.019531 238.800781 L 122.097656 224.398438 L 192.820312 224.398438 C 194.019531 224.398438 195.070312 223.425781 195.070312 222.148438 C 195.070312 220.875 194.097656 219.898438 192.820312 219.898438 L 123.894531 219.898438 L 128.769531 208.273438 L 173.546875 208.273438 C 174.746094 208.273438 175.796875 207.300781 175.796875 206.023438 C 175.796875 204.824219 174.820312 203.773438 173.546875 203.773438 L 130.644531 203.773438 L 139.195312 183.375 C 139.945312 183.375 140.695312 183.226562 141.371094 183 C 141.519531 183.226562 141.746094 183.449219 141.972656 183.601562 C 143.621094 186.523438 145.945312 189.976562 150.070312 189.976562 C 150.597656 189.976562 151.121094 189.898438 151.644531 189.824219 C 156.222656 188.925781 158.695312 185.398438 158.996094 179.324219 C 161.472656 180.074219 163.871094 179.476562 166.347656 177.675781 C 173.472656 172.351562 166.722656 150.226562 162.371094 138.226562 L 201.371094 138.226562 C 202.570312 138.226562 203.621094 137.25 203.621094 135.976562 C 203.621094 134.773438 202.644531 133.726562 201.371094 133.726562 L 160.722656 133.726562 C 159.445312 130.5 158.097656 127.199219 156.597656 123.824219 C 158.097656 123.824219 160.195312 123.824219 163.046875 123.824219 C 168.296875 123.824219 176.097656 123.824219 187.945312 123.824219 C 189.144531 123.824219 190.195312 122.851562 190.195312 121.574219 C 190.195312 120.375 189.222656 119.324219 187.945312 119.324219 C 176.320312 119.324219 159.445312 119.398438 154.570312 119.324219 C 152.621094 115.050781 149.921875 108.976562 148.796875 103.726562 L 165.894531 103.726562 C 166.195312 103.800781 166.570312 103.800781 166.871094 103.726562 L 186.222656 103.726562 C 186.371094 103.800781 186.597656 103.800781 186.746094 103.800781 C 186.894531 103.800781 187.046875 103.800781 187.269531 103.726562 L 225.144531 103.726562 C 217.269531 115.800781 221.019531 133.273438 222.144531 137.699219 C 220.722656 139.949219 219.671875 142.050781 218.695312 144.148438 L 218.394531 144.75 C 214.046875 153.601562 208.796875 159.300781 204.894531 163.425781 C 200.621094 168 196.496094 172.425781 201.296875 176.851562 C 203.472656 178.949219 205.796875 179.773438 208.195312 179.773438 C 214.945312 179.773438 222.070312 172.800781 228.144531 166.949219 C 228.519531 166.648438 228.820312 166.273438 229.121094 165.976562 L 237.894531 184.648438 C 234.820312 190.050781 231.070312 195.375 227.394531 200.550781 C 217.722656 214.351562 208.570312 227.324219 215.019531 237.074219 C 216.222656 238.875 217.722656 239.324219 218.847656 239.324219 C 223.421875 239.476562 228.445312 233.101562 236.921875 221.925781 C 238.722656 219.523438 240.519531 217.125 242.394531 214.800781 C 237.519531 231 233.546875 247.800781 241.121094 252.675781 C 242.472656 253.648438 243.746094 253.875 244.722656 253.875 C 245.246094 253.875 245.695312 253.800781 246.144531 253.648438 C 249.296875 252.75 250.945312 249.148438 252.296875 246.074219 C 252.746094 246.300781 253.347656 246.375 253.871094 246.449219 C 255.671875 246.601562 258.222656 245.925781 260.921875 242.625 C 265.269531 256.800781 263.320312 271.199219 254.996094 285.675781 Z M 128.921875 163.273438 C 124.121094 154.050781 120.222656 140.625 118.871094 136.273438 L 118.644531 135.449219 C 117.972656 133.125 116.769531 124.648438 116.394531 121.574219 C 116.246094 120.375 115.121094 119.476562 113.921875 119.625 C 112.722656 119.773438 111.820312 120.898438 111.972656 122.101562 C 112.121094 123.300781 113.472656 133.574219 114.371094 136.648438 L 114.597656 137.476562 C 115.722656 141.375 118.945312 152.175781 122.996094 161.25 C 121.570312 159.523438 119.847656 156.601562 118.644531 154.351562 C 113.847656 145.648438 103.121094 98.398438 102.597656 92.625 C 102.296875 89.699219 100.945312 87.300781 98.621094 85.726562 C 93.519531 82.273438 83.996094 82.425781 69.445312 86.175781 C 74.921875 71.476562 83.019531 58.125 93.597656 46.351562 L 96.597656 46.949219 C 115.871094 51 137.695312 55.574219 147.671875 60.824219 C 164.320312 69.675781 167.472656 76.125 170.847656 82.949219 L 171.144531 83.625 C 175.421875 92.398438 178.871094 96.375 181.722656 99.449219 L 167.171875 99.449219 C 165.671875 98.101562 164.320312 96.75 163.121094 95.625 C 158.921875 91.574219 155.921875 88.574219 152.246094 88.726562 C 150.144531 88.800781 148.121094 89.925781 146.097656 92.175781 C 144.222656 94.199219 143.472656 97.273438 143.847656 101.175781 C 143.769531 101.324219 143.769531 101.550781 143.769531 101.699219 C 143.769531 102.074219 143.847656 102.375 143.996094 102.675781 C 144.894531 108.898438 148.121094 116.25 151.046875 122.625 C 153.222656 127.425781 155.246094 132.226562 157.046875 136.875 C 157.046875 136.875 157.046875 136.949219 157.046875 136.949219 C 166.121094 160.875 165.894531 172.5 163.570312 174.226562 C 161.695312 175.648438 160.347656 175.648438 158.546875 174.300781 C 152.171875 153.75 140.171875 124.050781 135.296875 117.074219 C 134.621094 116.101562 133.195312 115.800781 132.222656 116.476562 C 131.246094 117.148438 130.945312 118.574219 131.621094 119.550781 C 135.820312 125.550781 147.746094 154.5 154.347656 175.949219 C 154.347656 176.101562 154.347656 176.175781 154.347656 176.398438 C 154.722656 182.023438 153.519531 184.949219 150.597656 185.476562 C 148.496094 185.925781 147.296875 184.351562 145.121094 180.449219 C 144.820312 179.925781 144.519531 179.398438 144.296875 178.949219 C 140.621094 169.648438 137.246094 158.773438 134.996094 151.351562 C 132.972656 144.898438 132.296875 142.726562 131.769531 141.824219 C 131.097656 140.625 127.796875 130.726562 125.019531 121.800781 C 124.644531 120.601562 123.445312 120 122.246094 120.375 C 121.046875 120.75 120.445312 121.949219 120.820312 123.148438 C 122.171875 127.574219 126.746094 142.050781 127.945312 144.074219 C 128.320312 144.75 129.519531 148.800781 130.722656 152.699219 C 132.894531 159.75 136.046875 169.949219 139.496094 178.949219 C 139.269531 179.023438 138.894531 179.023438 138.445312 178.875 C 137.621094 178.574219 135.972656 177.523438 133.945312 173.625 C 133.121094 172.050781 132.296875 170.324219 131.394531 168.523438 C 130.796875 166.949219 129.894531 165.226562 128.921875 163.273438 Z M 148.269531 99.601562 C 148.269531 97.648438 148.644531 96.148438 149.472656 95.25 C 150.671875 93.976562 151.644531 93.300781 152.472656 93.226562 C 154.195312 93.148438 156.820312 95.699219 160.046875 98.851562 C 160.269531 99.074219 160.496094 99.300781 160.722656 99.523438 L 148.269531 99.523438 Z M 240.519531 180 L 232.570312 162.976562 C 235.871094 159.898438 239.472656 157.125 241.945312 157.273438 C 242.472656 157.273438 243.222656 157.425781 244.121094 158.476562 C 247.046875 161.773438 244.644531 171.300781 240.519531 180 Z M 187.496094 4.425781 C 221.171875 4.425781 252.746094 17.550781 276.597656 41.324219 C 293.546875 58.273438 305.246094 79.5 310.421875 102.824219 C 305.921875 103.800781 301.121094 104.851562 296.097656 105.898438 C 276.519531 110.023438 254.320312 114.675781 243.820312 120.226562 C 235.644531 124.574219 229.871094 128.699219 225.746094 133.351562 C 224.472656 126.074219 223.121094 111.675781 231.445312 103.425781 C 232.046875 102.824219 232.269531 101.851562 231.894531 101.023438 C 231.519531 100.199219 230.769531 99.675781 229.871094 99.675781 L 187.796875 99.675781 C 187.121094 98.851562 186.445312 98.101562 185.695312 97.351562 C 182.769531 94.273438 179.546875 90.75 175.195312 81.898438 L 174.894531 81.226562 C 171.371094 74.023438 167.769531 66.601562 149.847656 57.074219 C 139.347656 51.523438 117.144531 46.875 97.644531 42.75 L 97.269531 42.675781 C 120.820312 18.300781 153.519531 4.425781 187.496094 4.425781 Z M 187.496094 370.574219 C 118.046875 370.574219 61.570312 314.101562 61.570312 244.648438 L 61.570312 130.425781 C 61.570312 117.074219 63.671875 103.949219 67.722656 91.351562 C 86.921875 85.949219 93.820312 87.824219 96.144531 89.476562 C 97.421875 90.300781 98.019531 91.5 98.171875 93.074219 C 98.769531 99.074219 109.570312 147.148438 114.746094 156.523438 C 119.097656 164.324219 121.871094 167.925781 125.847656 167.023438 C 126.445312 168.226562 127.046875 169.425781 127.570312 170.550781 C 128.472656 172.425781 129.296875 174.148438 130.195312 175.875 C 131.695312 178.726562 133.347656 180.75 135.070312 182.023438 L 125.246094 205.351562 L 118.496094 221.398438 L 111.894531 237.148438 C 107.019531 248.773438 106.496094 261.148438 110.171875 273.375 C 110.171875 273.523438 110.246094 273.675781 110.320312 273.824219 C 111.746094 278.550781 113.847656 283.273438 116.546875 287.925781 C 123.894531 300.601562 133.121094 308.476562 133.496094 308.773438 C 133.871094 309.074219 134.394531 309.300781 134.921875 309.300781 L 240.445312 309.300781 C 240.972656 309.300781 241.496094 309.148438 241.871094 308.773438 C 242.246094 308.476562 251.472656 300.601562 258.820312 287.925781 C 268.421875 271.273438 270.144531 254.023438 263.847656 238.050781 C 264.597656 236.625 265.269531 235.199219 266.019531 233.625 C 266.546875 232.5 267.144531 231.300781 267.746094 230.101562 C 272.097656 231 275.019531 226.425781 278.769531 219.601562 C 283.945312 210.226562 294.820312 162.148438 295.347656 156.148438 C 295.496094 154.574219 296.097656 153.523438 297.144531 152.699219 C 299.019531 151.273438 303.445312 150 313.421875 151.574219 L 313.421875 244.425781 C 313.421875 314.023438 256.945312 370.574219 187.496094 370.574219 Z M 187.496094 370.574219 " fill-opacity="1" fill-rule="nonzero"/></g></svg>