<svg xmlns="http://www.w3.org/2000/svg" xmlns:xlink="http://www.w3.org/1999/xlink" width="321" zoomAndPan="magnify" viewBox="0 0 240.75 132.749998" height="177" preserveAspectRatio="xMidYMid meet" version="1.0"><defs><filter x="0%" y="0%" width="100%" height="100%" id="89913053ca"><feColorMatrix values="0 0 0 0 1 0 0 0 0 1 0 0 0 0 1 0 0 0 1 0" color-interpolation-filters="sRGB"/></filter><g/><mask id="fe43c45692"><g filter="url(#89913053ca)"><rect x="-24.075" width="288.9" fill="#000000" y="-13.275" height="159.299998" fill-opacity="0.54"/></g></mask><clipPath id="17d1dbcdf6"><rect x="0" width="205" y="0" height="22"/></clipPath></defs><g fill="#0f2b05" fill-opacity="1"><g transform="translate(29.054659, 76.843398)"><g><path d="M 3.5625 -43.09375 C 3.984375 -43.09375 4.34375 -43.53125 4.34375 -43.96875 L 4.34375 -59.0625 L 20.640625 -59.0625 L 20.640625 0.09375 C 20.640625 0.515625 20.984375 0.875 21.421875 0.875 L 30.4375 0.875 C 30.953125 0.875 31.3125 0.515625 31.3125 0.09375 L 31.3125 -59.0625 L 47.515625 -59.0625 L 47.515625 -43.96875 C 47.515625 -43.53125 47.875 -43.09375 48.296875 -43.09375 C 48.828125 -43.09375 49.171875 -43.53125 49.171875 -43.96875 L 49.171875 -59.84375 C 49.171875 -60.265625 48.828125 -60.703125 48.296875 -60.703125 L 3.5625 -60.703125 C 3.125 -60.703125 2.78125 -60.265625 2.78125 -59.84375 L 2.78125 -43.96875 C 2.78125 -43.53125 3.125 -43.09375 3.5625 -43.09375 Z M 29.65625 -59.0625 L 29.65625 -0.78125 L 22.203125 -0.78125 L 22.203125 -59.0625 Z M 29.65625 -59.0625 "/></g></g></g><g fill="#0f2b05" fill-opacity="1"><g transform="translate(81.087169, 76.843398)"><g><path d="M 40.578125 -59.84375 C 40.578125 -60.265625 40.15625 -60.703125 39.71875 -60.703125 C 39.28125 -60.703125 38.9375 -60.265625 38.9375 -59.84375 L 38.9375 -18.03125 C 38.9375 -8.5 31.125 -0.78125 21.6875 -0.78125 C 17.078125 -0.78125 13.4375 -4.421875 13.4375 -9.015625 L 13.4375 -59.84375 C 13.4375 -60.265625 13.015625 -60.703125 12.578125 -60.703125 L 3.5625 -60.703125 C 3.125 -60.703125 2.78125 -60.265625 2.78125 -59.84375 L 2.78125 -18.03125 C 2.78125 -7.625 11.1875 0.875 21.6875 0.875 C 32.09375 0.875 40.578125 -7.625 40.578125 -18.03125 Z M 4.34375 -18.03125 L 4.34375 -59.0625 L 11.796875 -59.0625 L 11.796875 -9.015625 C 11.796875 -6.5 12.75 -4.15625 14.3125 -2.421875 C 8.40625 -5.203125 4.34375 -11.09375 4.34375 -18.03125 Z M 4.34375 -18.03125 "/></g></g></g><g fill="#0f2b05" fill-opacity="1"><g transform="translate(124.534318, 76.843398)"><g><path d="M 13.4375 -11.625 C 13.96875 -10.578125 14.75 -9.546875 15.609375 -8.671875 C 15.78125 -8.5 16.046875 -8.40625 16.21875 -8.40625 C 16.390625 -8.40625 16.65625 -8.5 16.828125 -8.671875 C 17.078125 -9.015625 17.078125 -9.546875 16.828125 -9.796875 C 14.65625 -11.96875 13.53125 -14.75 13.53125 -17.78125 C 13.53125 -24.015625 18.5625 -29.046875 24.796875 -29.046875 C 33.46875 -29.046875 40.578125 -36.15625 40.578125 -44.828125 C 40.578125 -53.59375 33.46875 -60.609375 24.796875 -60.609375 L 12.65625 -60.609375 C 12.65625 -60.609375 12.578125 -60.703125 12.578125 -60.703125 L 3.5625 -60.703125 C 3.125 -60.703125 2.78125 -60.265625 2.78125 -59.84375 L 2.78125 0.09375 C 2.78125 0.515625 3.125 0.875 3.5625 0.875 L 12.578125 0.875 C 12.578125 0.875 12.65625 0.875 12.65625 0.875 L 12.578125 0.875 C 13.015625 0.875 13.4375 0.515625 13.4375 0 Z M 13.4375 -23.9375 L 13.4375 -59.0625 L 24.796875 -59.0625 C 27.578125 -59.0625 29.828125 -56.71875 29.828125 -53.9375 L 29.828125 -35.8125 C 29.828125 -33.046875 27.578125 -30.703125 24.796875 -30.703125 L 17.078125 -30.703125 C 16.65625 -30.703125 16.296875 -30.359375 16.296875 -29.921875 C 16.296875 -29.484375 16.65625 -29.046875 17.078125 -29.046875 L 18.46875 -29.046875 C 16.390625 -27.921875 14.5625 -26.109375 13.4375 -23.9375 Z M 38.9375 -44.828125 C 38.9375 -38.9375 35.296875 -33.90625 30.171875 -31.734375 C 30.953125 -32.859375 31.484375 -34.34375 31.484375 -35.8125 L 31.484375 -53.9375 C 31.484375 -55.40625 30.953125 -56.796875 30.171875 -57.921875 C 35.296875 -55.84375 38.9375 -50.734375 38.9375 -44.828125 Z M 4.34375 -59.0625 L 11.796875 -59.0625 L 11.796875 -0.78125 L 4.34375 -0.78125 Z M 4.34375 -59.0625 "/></g></g></g><g fill="#0f2b05" fill-opacity="1"><g transform="translate(167.981466, 76.843398)"><g><path d="M 40.5 -0.171875 L 22.453125 -60.09375 C 22.375 -60.09375 22.375 -60.1875 22.375 -60.1875 C 22.375 -60.265625 22.375 -60.265625 22.375 -60.265625 C 22.28125 -60.265625 22.28125 -60.359375 22.28125 -60.359375 C 22.203125 -60.4375 22.203125 -60.4375 22.203125 -60.4375 C 22.203125 -60.4375 22.203125 -60.4375 22.109375 -60.4375 C 22.109375 -60.53125 22.109375 -60.53125 22.03125 -60.53125 C 22.03125 -60.609375 21.9375 -60.609375 21.859375 -60.609375 C 21.859375 -60.609375 21.765625 -60.609375 21.765625 -60.609375 C 21.765625 -60.609375 21.6875 -60.609375 21.6875 -60.609375 C 21.59375 -60.609375 21.59375 -60.609375 21.59375 -60.609375 C 21.59375 -60.609375 21.59375 -60.609375 21.5 -60.609375 C 21.5 -60.609375 21.5 -60.609375 21.421875 -60.609375 C 21.328125 -60.609375 21.328125 -60.609375 21.25 -60.53125 C 21.15625 -60.53125 21.15625 -60.53125 21.15625 -60.4375 C 21.15625 -60.4375 21.078125 -60.4375 21.078125 -60.4375 C 21.078125 -60.4375 21.078125 -60.4375 21.078125 -60.359375 C 20.984375 -60.359375 20.984375 -60.359375 20.984375 -60.359375 C 20.984375 -60.265625 20.984375 -60.265625 20.984375 -60.265625 C 20.90625 -60.265625 20.90625 -60.265625 20.90625 -60.1875 C 20.90625 -60.1875 20.90625 -60.1875 20.90625 -60.09375 L 2.78125 -0.171875 C 2.609375 0.265625 2.859375 0.6875 3.296875 0.875 C 3.375 0.875 3.46875 0.875 3.5625 0.875 C 3.90625 0.875 4.25 0.609375 4.34375 0.265625 L 7.625 -10.671875 L 26.1875 -10.671875 L 29.484375 0.265625 C 29.578125 0.609375 29.921875 0.875 30.265625 0.875 L 39.71875 0.875 C 39.71875 0.875 39.71875 0.875 39.796875 0.875 C 39.796875 0.875 39.796875 0.875 39.890625 0.875 C 39.890625 0.875 39.890625 0.875 39.984375 0.875 C 39.984375 0.78125 40.0625 0.78125 40.0625 0.78125 C 40.0625 0.78125 40.0625 0.78125 40.15625 0.78125 C 40.15625 0.78125 40.234375 0.6875 40.234375 0.6875 C 40.328125 0.609375 40.328125 0.609375 40.40625 0.515625 C 40.40625 0.4375 40.5 0.4375 40.5 0.4375 C 40.5 0.34375 40.5 0.34375 40.5 0.34375 C 40.5 0.265625 40.5 0.265625 40.5 0.265625 C 40.5 0.171875 40.578125 0.171875 40.578125 0.171875 C 40.578125 0.09375 40.578125 0.09375 40.578125 0 C 40.578125 -0.09375 40.5 -0.171875 40.5 -0.171875 Z M 8.15625 -12.3125 L 16.90625 -41.359375 L 25.671875 -12.3125 Z M 30.875 -0.78125 L 17.78125 -44.234375 L 21.6875 -56.96875 L 35.984375 -9.546875 L 38.671875 -0.78125 Z M 15.171875 -66.078125 C 16.828125 -67.734375 19.421875 -67.734375 21.078125 -66.078125 C 22.203125 -65.046875 23.59375 -64.4375 25.15625 -64.4375 C 26.703125 -64.4375 28.1875 -65.046875 29.21875 -66.078125 C 29.578125 -66.421875 29.578125 -66.953125 29.21875 -67.296875 C 28.96875 -67.546875 28.4375 -67.546875 28.09375 -67.296875 C 27.3125 -66.421875 26.28125 -66.078125 25.15625 -66.078125 C 24.015625 -66.078125 22.984375 -66.421875 22.203125 -67.296875 C 19.953125 -69.546875 16.296875 -69.546875 14.046875 -67.296875 C 13.703125 -66.953125 13.703125 -66.421875 14.046875 -66.078125 C 14.3125 -65.8125 14.828125 -65.8125 15.171875 -66.078125 Z M 15.171875 -66.078125 "/></g></g></g><g mask="url(#fe43c45692)"><g transform="matrix(1, 0, 0, 1, 19, 98)"><g clip-path="url(#17d1dbcdf6)"><g fill="#0f2b05" fill-opacity="1"><g transform="translate(0.746527, 16.367412)"><g><path d="M 1.515625 -11.796875 C 1.992188 -11.847656 2.503906 -11.882812 3.046875 -11.90625 C 3.597656 -11.9375 4.175781 -11.953125 4.78125 -11.953125 C 5.507812 -11.953125 6.160156 -11.863281 6.734375 -11.6875 C 7.304688 -11.507812 7.789062 -11.257812 8.1875 -10.9375 C 8.582031 -10.625 8.878906 -10.242188 9.078125 -9.796875 C 9.285156 -9.359375 9.390625 -8.878906 9.390625 -8.359375 C 9.390625 -7.734375 9.269531 -7.175781 9.03125 -6.6875 C 8.789062 -6.195312 8.453125 -5.78125 8.015625 -5.4375 C 7.578125 -5.101562 7.054688 -4.847656 6.453125 -4.671875 C 5.847656 -4.492188 5.175781 -4.40625 4.4375 -4.40625 C 3.96875 -4.40625 3.53125 -4.421875 3.125 -4.453125 L 3.125 0 L 1.515625 0 Z M 4.640625 -5.75 C 5.660156 -5.75 6.441406 -5.96875 6.984375 -6.40625 C 7.523438 -6.851562 7.796875 -7.457031 7.796875 -8.21875 C 7.796875 -8.957031 7.535156 -9.539062 7.015625 -9.96875 C 6.492188 -10.394531 5.738281 -10.609375 4.75 -10.609375 C 4.445312 -10.609375 4.160156 -10.601562 3.890625 -10.59375 C 3.617188 -10.582031 3.363281 -10.566406 3.125 -10.546875 L 3.125 -5.828125 C 3.300781 -5.804688 3.515625 -5.785156 3.765625 -5.765625 C 4.023438 -5.753906 4.316406 -5.75 4.640625 -5.75 Z M 4.640625 -5.75 "/></g></g></g><g fill="#0f2b05" fill-opacity="1"><g transform="translate(12.737184, 16.367412)"><g><path d="M 6.109375 -7.3125 C 5.898438 -7.40625 5.648438 -7.453125 5.359375 -7.453125 C 5.035156 -7.453125 4.722656 -7.382812 4.421875 -7.25 C 4.128906 -7.113281 3.867188 -6.910156 3.640625 -6.640625 C 3.410156 -6.367188 3.222656 -6.019531 3.078125 -5.59375 C 2.941406 -5.175781 2.875 -4.679688 2.875 -4.109375 L 2.875 0 L 1.34375 0 L 1.34375 -8.78125 L 2.828125 -8.78125 L 2.828125 -6.875 C 2.921875 -7.144531 3.050781 -7.410156 3.21875 -7.671875 C 3.394531 -7.929688 3.597656 -8.15625 3.828125 -8.34375 C 4.054688 -8.53125 4.320312 -8.679688 4.625 -8.796875 C 4.925781 -8.921875 5.265625 -8.984375 5.640625 -8.984375 C 5.804688 -8.984375 5.972656 -8.972656 6.140625 -8.953125 C 6.304688 -8.941406 6.453125 -8.921875 6.578125 -8.890625 Z M 6.109375 -7.3125 "/></g></g></g><g fill="#0f2b05" fill-opacity="1"><g transform="translate(21.654501, 16.367412)"><g><path d="M 7.875 -4.390625 C 7.875 -4.828125 7.800781 -5.242188 7.65625 -5.640625 C 7.519531 -6.035156 7.320312 -6.378906 7.0625 -6.671875 C 6.8125 -6.960938 6.515625 -7.195312 6.171875 -7.375 C 5.828125 -7.550781 5.453125 -7.640625 5.046875 -7.640625 C 4.160156 -7.640625 3.46875 -7.34375 2.96875 -6.75 C 2.476562 -6.164062 2.234375 -5.390625 2.234375 -4.421875 C 2.234375 -3.984375 2.300781 -3.5625 2.4375 -3.15625 C 2.582031 -2.757812 2.78125 -2.410156 3.03125 -2.109375 C 3.28125 -1.816406 3.578125 -1.582031 3.921875 -1.40625 C 4.265625 -1.238281 4.640625 -1.15625 5.046875 -1.15625 C 5.484375 -1.15625 5.875 -1.234375 6.21875 -1.390625 C 6.570312 -1.546875 6.867188 -1.765625 7.109375 -2.046875 C 7.359375 -2.335938 7.546875 -2.679688 7.671875 -3.078125 C 7.804688 -3.472656 7.875 -3.910156 7.875 -4.390625 Z M 0.671875 -4.390625 C 0.671875 -5.097656 0.78125 -5.734375 1 -6.296875 C 1.226562 -6.867188 1.535156 -7.351562 1.921875 -7.75 C 2.316406 -8.144531 2.78125 -8.445312 3.3125 -8.65625 C 3.851562 -8.875 4.429688 -8.984375 5.046875 -8.984375 C 5.660156 -8.984375 6.234375 -8.875 6.765625 -8.65625 C 7.296875 -8.445312 7.757812 -8.144531 8.15625 -7.75 C 8.550781 -7.351562 8.859375 -6.875 9.078125 -6.3125 C 9.304688 -5.75 9.421875 -5.117188 9.421875 -4.421875 C 9.421875 -3.722656 9.3125 -3.085938 9.09375 -2.515625 C 8.875 -1.953125 8.566406 -1.46875 8.171875 -1.0625 C 7.773438 -0.65625 7.3125 -0.34375 6.78125 -0.125 C 6.25 0.09375 5.671875 0.203125 5.046875 0.203125 C 4.421875 0.203125 3.835938 0.09375 3.296875 -0.125 C 2.765625 -0.351562 2.300781 -0.671875 1.90625 -1.078125 C 1.519531 -1.484375 1.21875 -1.96875 1 -2.53125 C 0.78125 -3.09375 0.671875 -3.710938 0.671875 -4.390625 Z M 0.671875 -4.390625 "/></g></g></g><g fill="#0f2b05" fill-opacity="1"><g transform="translate(33.932233, 16.367412)"><g><path d="M 4.671875 0.203125 C 4.140625 0.203125 3.632812 0.0976562 3.15625 -0.109375 C 2.675781 -0.328125 2.257812 -0.632812 1.90625 -1.03125 C 1.550781 -1.425781 1.269531 -1.898438 1.0625 -2.453125 C 0.863281 -3.015625 0.765625 -3.644531 0.765625 -4.34375 C 0.765625 -5.007812 0.867188 -5.625 1.078125 -6.1875 C 1.285156 -6.757812 1.566406 -7.25 1.921875 -7.65625 C 2.273438 -8.070312 2.6875 -8.394531 3.15625 -8.625 C 3.632812 -8.863281 4.132812 -8.984375 4.65625 -8.984375 C 5.25 -8.984375 5.753906 -8.863281 6.171875 -8.625 C 6.597656 -8.394531 6.925781 -8.15625 7.15625 -7.90625 L 7.15625 -12.5 L 8.6875 -12.5 L 8.6875 -2.125 C 8.6875 -1.695312 8.789062 -1.414062 9 -1.28125 C 9.207031 -1.15625 9.429688 -1.09375 9.671875 -1.09375 L 9.359375 0.078125 C 8.285156 0.078125 7.628906 -0.347656 7.390625 -1.203125 C 7.140625 -0.835938 6.789062 -0.507812 6.34375 -0.21875 C 5.90625 0.0625 5.347656 0.203125 4.671875 0.203125 Z M 5.015625 -1.15625 C 5.429688 -1.15625 5.828125 -1.25 6.203125 -1.4375 C 6.578125 -1.632812 6.894531 -1.894531 7.15625 -2.21875 L 7.15625 -6.578125 C 6.945312 -6.835938 6.648438 -7.082031 6.265625 -7.3125 C 5.890625 -7.550781 5.46875 -7.671875 5 -7.671875 C 4.59375 -7.671875 4.222656 -7.582031 3.890625 -7.40625 C 3.554688 -7.238281 3.269531 -7.007812 3.03125 -6.71875 C 2.800781 -6.425781 2.625 -6.078125 2.5 -5.671875 C 2.375 -5.273438 2.3125 -4.847656 2.3125 -4.390625 C 2.3125 -3.921875 2.378906 -3.488281 2.515625 -3.09375 C 2.648438 -2.695312 2.835938 -2.351562 3.078125 -2.0625 C 3.328125 -1.78125 3.613281 -1.554688 3.9375 -1.390625 C 4.269531 -1.234375 4.628906 -1.15625 5.015625 -1.15625 Z M 5.015625 -1.15625 "/></g></g></g><g fill="#0f2b05" fill-opacity="1"><g transform="translate(46.463256, 16.367412)"><g><path d="M 9.203125 0.078125 C 8.660156 0.078125 8.234375 -0.0234375 7.921875 -0.234375 C 7.609375 -0.453125 7.390625 -0.765625 7.265625 -1.171875 C 6.867188 -0.765625 6.414062 -0.429688 5.90625 -0.171875 C 5.394531 0.078125 4.832031 0.203125 4.21875 0.203125 C 3.832031 0.203125 3.460938 0.140625 3.109375 0.015625 C 2.753906 -0.0976562 2.4375 -0.28125 2.15625 -0.53125 C 1.882812 -0.789062 1.664062 -1.128906 1.5 -1.546875 C 1.34375 -1.960938 1.265625 -2.472656 1.265625 -3.078125 L 1.265625 -8.78125 L 2.78125 -8.78125 L 2.78125 -3.28125 C 2.78125 -2.59375 2.921875 -2.066406 3.203125 -1.703125 C 3.492188 -1.335938 3.929688 -1.15625 4.515625 -1.15625 C 4.984375 -1.15625 5.429688 -1.242188 5.859375 -1.421875 C 6.285156 -1.609375 6.671875 -1.859375 7.015625 -2.171875 L 7.015625 -8.78125 L 8.53125 -8.78125 L 8.53125 -2.28125 C 8.53125 -2.03125 8.554688 -1.828125 8.609375 -1.671875 C 8.671875 -1.523438 8.742188 -1.410156 8.828125 -1.328125 C 8.921875 -1.242188 9.03125 -1.179688 9.15625 -1.140625 C 9.28125 -1.109375 9.40625 -1.09375 9.53125 -1.09375 Z M 9.203125 0.078125 "/></g></g></g><g fill="#0f2b05" fill-opacity="1"><g transform="translate(58.84231, 16.367412)"><g><path d="M 2.046875 -11.234375 L 3.203125 -11.234375 L 3.203125 -8.46875 L 5.640625 -8.46875 L 5.640625 -7.140625 L 3.203125 -7.140625 L 3.203125 -2.90625 C 3.203125 -2.582031 3.238281 -2.304688 3.3125 -2.078125 C 3.382812 -1.847656 3.484375 -1.664062 3.609375 -1.53125 C 3.734375 -1.394531 3.882812 -1.296875 4.0625 -1.234375 C 4.238281 -1.179688 4.421875 -1.15625 4.609375 -1.15625 C 4.890625 -1.15625 5.15625 -1.195312 5.40625 -1.28125 C 5.65625 -1.375 5.890625 -1.484375 6.109375 -1.609375 L 6.53125 -0.390625 C 6.3125 -0.253906 6.007812 -0.125 5.625 0 C 5.238281 0.132812 4.835938 0.203125 4.421875 0.203125 C 3.578125 0.203125 2.910156 -0.0703125 2.421875 -0.625 C 1.929688 -1.175781 1.6875 -1.972656 1.6875 -3.015625 L 1.6875 -7.140625 L 0.171875 -7.140625 L 0.171875 -8.46875 L 1.71875 -8.46875 Z M 2.046875 -11.234375 "/></g></g></g><g fill="#0f2b05" fill-opacity="1"><g transform="translate(67.725858, 16.367412)"><g><path d="M 7.875 -4.390625 C 7.875 -4.828125 7.800781 -5.242188 7.65625 -5.640625 C 7.519531 -6.035156 7.320312 -6.378906 7.0625 -6.671875 C 6.8125 -6.960938 6.515625 -7.195312 6.171875 -7.375 C 5.828125 -7.550781 5.453125 -7.640625 5.046875 -7.640625 C 4.160156 -7.640625 3.46875 -7.34375 2.96875 -6.75 C 2.476562 -6.164062 2.234375 -5.390625 2.234375 -4.421875 C 2.234375 -3.984375 2.300781 -3.5625 2.4375 -3.15625 C 2.582031 -2.757812 2.78125 -2.410156 3.03125 -2.109375 C 3.28125 -1.816406 3.578125 -1.582031 3.921875 -1.40625 C 4.265625 -1.238281 4.640625 -1.15625 5.046875 -1.15625 C 5.484375 -1.15625 5.875 -1.234375 6.21875 -1.390625 C 6.570312 -1.546875 6.867188 -1.765625 7.109375 -2.046875 C 7.359375 -2.335938 7.546875 -2.679688 7.671875 -3.078125 C 7.804688 -3.472656 7.875 -3.910156 7.875 -4.390625 Z M 0.671875 -4.390625 C 0.671875 -5.097656 0.78125 -5.734375 1 -6.296875 C 1.226562 -6.867188 1.535156 -7.351562 1.921875 -7.75 C 2.316406 -8.144531 2.78125 -8.445312 3.3125 -8.65625 C 3.851562 -8.875 4.429688 -8.984375 5.046875 -8.984375 C 5.660156 -8.984375 6.234375 -8.875 6.765625 -8.65625 C 7.296875 -8.445312 7.757812 -8.144531 8.15625 -7.75 C 8.550781 -7.351562 8.859375 -6.875 9.078125 -6.3125 C 9.304688 -5.75 9.421875 -5.117188 9.421875 -4.421875 C 9.421875 -3.722656 9.3125 -3.085938 9.09375 -2.515625 C 8.875 -1.953125 8.566406 -1.46875 8.171875 -1.0625 C 7.773438 -0.65625 7.3125 -0.34375 6.78125 -0.125 C 6.25 0.09375 5.671875 0.203125 5.046875 0.203125 C 4.421875 0.203125 3.835938 0.09375 3.296875 -0.125 C 2.765625 -0.351562 2.300781 -0.671875 1.90625 -1.078125 C 1.519531 -1.484375 1.21875 -1.96875 1 -2.53125 C 0.78125 -3.09375 0.671875 -3.710938 0.671875 -4.390625 Z M 0.671875 -4.390625 "/></g></g></g><g fill="#0f2b05" fill-opacity="1"><g transform="translate(80.00359, 16.367412)"><g><path d="M 1.234375 -1.96875 C 1.523438 -1.71875 1.890625 -1.507812 2.328125 -1.34375 C 2.773438 -1.1875 3.253906 -1.109375 3.765625 -1.109375 C 4.398438 -1.109375 4.875 -1.210938 5.1875 -1.421875 C 5.507812 -1.628906 5.671875 -1.898438 5.671875 -2.234375 C 5.671875 -2.398438 5.640625 -2.554688 5.578125 -2.703125 C 5.515625 -2.847656 5.398438 -2.988281 5.234375 -3.125 C 5.078125 -3.257812 4.859375 -3.390625 4.578125 -3.515625 C 4.296875 -3.648438 3.929688 -3.796875 3.484375 -3.953125 C 2.648438 -4.234375 2.03125 -4.566406 1.625 -4.953125 C 1.21875 -5.347656 1.015625 -5.890625 1.015625 -6.578125 C 1.015625 -6.910156 1.085938 -7.222656 1.234375 -7.515625 C 1.390625 -7.804688 1.609375 -8.0625 1.890625 -8.28125 C 2.179688 -8.5 2.53125 -8.671875 2.9375 -8.796875 C 3.351562 -8.921875 3.828125 -8.984375 4.359375 -8.984375 C 4.929688 -8.984375 5.429688 -8.921875 5.859375 -8.796875 C 6.296875 -8.679688 6.691406 -8.535156 7.046875 -8.359375 L 6.625 -7.109375 C 6.320312 -7.285156 5.972656 -7.429688 5.578125 -7.546875 C 5.191406 -7.660156 4.765625 -7.71875 4.296875 -7.71875 C 3.703125 -7.71875 3.253906 -7.597656 2.953125 -7.359375 C 2.648438 -7.128906 2.5 -6.875 2.5 -6.59375 C 2.5 -6.457031 2.523438 -6.332031 2.578125 -6.21875 C 2.628906 -6.101562 2.722656 -5.992188 2.859375 -5.890625 C 2.992188 -5.796875 3.171875 -5.695312 3.390625 -5.59375 C 3.617188 -5.488281 3.898438 -5.378906 4.234375 -5.265625 C 4.785156 -5.078125 5.253906 -4.882812 5.640625 -4.6875 C 6.023438 -4.488281 6.332031 -4.269531 6.5625 -4.03125 C 6.800781 -3.800781 6.972656 -3.546875 7.078125 -3.265625 C 7.179688 -2.992188 7.234375 -2.6875 7.234375 -2.34375 C 7.234375 -1.945312 7.144531 -1.59375 6.96875 -1.28125 C 6.800781 -0.96875 6.566406 -0.703125 6.265625 -0.484375 C 5.960938 -0.265625 5.59375 -0.0976562 5.15625 0.015625 C 4.726562 0.140625 4.25 0.203125 3.71875 0.203125 C 3.039062 0.203125 2.4375 0.117188 1.90625 -0.046875 C 1.375 -0.210938 0.9375 -0.429688 0.59375 -0.703125 Z M 1.234375 -1.96875 "/></g></g></g><g fill="#0f2b05" fill-opacity="1"><g transform="translate(90.086086, 16.367412)"><g/></g></g><g fill="#0f2b05" fill-opacity="1"><g transform="translate(97.331656, 16.367412)"><g><path d="M 0.171875 -0.421875 L 4.796875 -11.828125 L 6.546875 -11.828125 L 11.109375 -0.421875 L 9.640625 0.171875 L 8.328125 -3.203125 L 2.859375 -3.203125 L 1.53125 0.140625 Z M 3.359375 -4.5625 L 7.796875 -4.5625 L 5.59375 -10.234375 Z M 3.359375 -4.5625 "/></g></g></g><g fill="#0f2b05" fill-opacity="1"><g transform="translate(110.791444, 16.367412)"><g><path d="M 6.109375 -7.3125 C 5.898438 -7.40625 5.648438 -7.453125 5.359375 -7.453125 C 5.035156 -7.453125 4.722656 -7.382812 4.421875 -7.25 C 4.128906 -7.113281 3.867188 -6.910156 3.640625 -6.640625 C 3.410156 -6.367188 3.222656 -6.019531 3.078125 -5.59375 C 2.941406 -5.175781 2.875 -4.679688 2.875 -4.109375 L 2.875 0 L 1.34375 0 L 1.34375 -8.78125 L 2.828125 -8.78125 L 2.828125 -6.875 C 2.921875 -7.144531 3.050781 -7.410156 3.21875 -7.671875 C 3.394531 -7.929688 3.597656 -8.15625 3.828125 -8.34375 C 4.054688 -8.53125 4.320312 -8.679688 4.625 -8.796875 C 4.925781 -8.921875 5.265625 -8.984375 5.640625 -8.984375 C 5.804688 -8.984375 5.972656 -8.972656 6.140625 -8.953125 C 6.304688 -8.941406 6.453125 -8.921875 6.578125 -8.890625 Z M 6.109375 -7.3125 "/></g></g></g><g fill="#0f2b05" fill-opacity="1"><g transform="translate(119.708761, 16.367412)"><g><path d="M 2.046875 -11.234375 L 3.203125 -11.234375 L 3.203125 -8.46875 L 5.640625 -8.46875 L 5.640625 -7.140625 L 3.203125 -7.140625 L 3.203125 -2.90625 C 3.203125 -2.582031 3.238281 -2.304688 3.3125 -2.078125 C 3.382812 -1.847656 3.484375 -1.664062 3.609375 -1.53125 C 3.734375 -1.394531 3.882812 -1.296875 4.0625 -1.234375 C 4.238281 -1.179688 4.421875 -1.15625 4.609375 -1.15625 C 4.890625 -1.15625 5.15625 -1.195312 5.40625 -1.28125 C 5.65625 -1.375 5.890625 -1.484375 6.109375 -1.609375 L 6.53125 -0.390625 C 6.3125 -0.253906 6.007812 -0.125 5.625 0 C 5.238281 0.132812 4.835938 0.203125 4.421875 0.203125 C 3.578125 0.203125 2.910156 -0.0703125 2.421875 -0.625 C 1.929688 -1.175781 1.6875 -1.972656 1.6875 -3.015625 L 1.6875 -7.140625 L 0.171875 -7.140625 L 0.171875 -8.46875 L 1.71875 -8.46875 Z M 2.046875 -11.234375 "/></g></g></g><g fill="#0f2b05" fill-opacity="1"><g transform="translate(128.592309, 16.367412)"><g><path d="M 2.3125 -3.765625 C 2.414062 -2.941406 2.703125 -2.300781 3.171875 -1.84375 C 3.648438 -1.382812 4.273438 -1.15625 5.046875 -1.15625 C 5.554688 -1.15625 6.015625 -1.207031 6.421875 -1.3125 C 6.828125 -1.414062 7.210938 -1.550781 7.578125 -1.71875 L 7.9375 -0.421875 C 7.53125 -0.234375 7.070312 -0.0820312 6.5625 0.03125 C 6.0625 0.144531 5.492188 0.203125 4.859375 0.203125 C 4.234375 0.203125 3.664062 0.0976562 3.15625 -0.109375 C 2.65625 -0.316406 2.222656 -0.613281 1.859375 -1 C 1.503906 -1.394531 1.234375 -1.875 1.046875 -2.4375 C 0.859375 -3.007812 0.765625 -3.660156 0.765625 -4.390625 C 0.765625 -5.046875 0.859375 -5.65625 1.046875 -6.21875 C 1.234375 -6.78125 1.5 -7.265625 1.84375 -7.671875 C 2.195312 -8.085938 2.613281 -8.410156 3.09375 -8.640625 C 3.582031 -8.867188 4.128906 -8.984375 4.734375 -8.984375 C 5.359375 -8.984375 5.90625 -8.875 6.375 -8.65625 C 6.851562 -8.445312 7.25 -8.15625 7.5625 -7.78125 C 7.882812 -7.414062 8.125 -6.984375 8.28125 -6.484375 C 8.4375 -5.992188 8.515625 -5.472656 8.515625 -4.921875 C 8.515625 -4.523438 8.5 -4.140625 8.46875 -3.765625 Z M 4.703125 -7.671875 C 4.035156 -7.671875 3.488281 -7.441406 3.0625 -6.984375 C 2.644531 -6.535156 2.390625 -5.875 2.296875 -5 L 7.109375 -5 C 7.109375 -5.851562 6.894531 -6.507812 6.46875 -6.96875 C 6.039062 -7.4375 5.453125 -7.671875 4.703125 -7.671875 Z M 4.703125 -7.671875 "/></g></g></g><g fill="#0f2b05" fill-opacity="1"><g transform="translate(139.958161, 16.367412)"><g><path d="M 1.234375 -1.96875 C 1.523438 -1.71875 1.890625 -1.507812 2.328125 -1.34375 C 2.773438 -1.1875 3.253906 -1.109375 3.765625 -1.109375 C 4.398438 -1.109375 4.875 -1.210938 5.1875 -1.421875 C 5.507812 -1.628906 5.671875 -1.898438 5.671875 -2.234375 C 5.671875 -2.398438 5.640625 -2.554688 5.578125 -2.703125 C 5.515625 -2.847656 5.398438 -2.988281 5.234375 -3.125 C 5.078125 -3.257812 4.859375 -3.390625 4.578125 -3.515625 C 4.296875 -3.648438 3.929688 -3.796875 3.484375 -3.953125 C 2.648438 -4.234375 2.03125 -4.566406 1.625 -4.953125 C 1.21875 -5.347656 1.015625 -5.890625 1.015625 -6.578125 C 1.015625 -6.910156 1.085938 -7.222656 1.234375 -7.515625 C 1.390625 -7.804688 1.609375 -8.0625 1.890625 -8.28125 C 2.179688 -8.5 2.53125 -8.671875 2.9375 -8.796875 C 3.351562 -8.921875 3.828125 -8.984375 4.359375 -8.984375 C 4.929688 -8.984375 5.429688 -8.921875 5.859375 -8.796875 C 6.296875 -8.679688 6.691406 -8.535156 7.046875 -8.359375 L 6.625 -7.109375 C 6.320312 -7.285156 5.972656 -7.429688 5.578125 -7.546875 C 5.191406 -7.660156 4.765625 -7.71875 4.296875 -7.71875 C 3.703125 -7.71875 3.253906 -7.597656 2.953125 -7.359375 C 2.648438 -7.128906 2.5 -6.875 2.5 -6.59375 C 2.5 -6.457031 2.523438 -6.332031 2.578125 -6.21875 C 2.628906 -6.101562 2.722656 -5.992188 2.859375 -5.890625 C 2.992188 -5.796875 3.171875 -5.695312 3.390625 -5.59375 C 3.617188 -5.488281 3.898438 -5.378906 4.234375 -5.265625 C 4.785156 -5.078125 5.253906 -4.882812 5.640625 -4.6875 C 6.023438 -4.488281 6.332031 -4.269531 6.5625 -4.03125 C 6.800781 -3.800781 6.972656 -3.546875 7.078125 -3.265625 C 7.179688 -2.992188 7.234375 -2.6875 7.234375 -2.34375 C 7.234375 -1.945312 7.144531 -1.59375 6.96875 -1.28125 C 6.800781 -0.96875 6.566406 -0.703125 6.265625 -0.484375 C 5.960938 -0.265625 5.59375 -0.0976562 5.15625 0.015625 C 4.726562 0.140625 4.25 0.203125 3.71875 0.203125 C 3.039062 0.203125 2.4375 0.117188 1.90625 -0.046875 C 1.375 -0.210938 0.9375 -0.429688 0.59375 -0.703125 Z M 1.234375 -1.96875 "/></g></g></g><g fill="#0f2b05" fill-opacity="1"><g transform="translate(150.04065, 16.367412)"><g><path d="M 0.765625 -4.34375 C 0.765625 -5 0.863281 -5.609375 1.0625 -6.171875 C 1.269531 -6.742188 1.554688 -7.238281 1.921875 -7.65625 C 2.285156 -8.070312 2.722656 -8.394531 3.234375 -8.625 C 3.742188 -8.863281 4.304688 -8.984375 4.921875 -8.984375 C 5.421875 -8.984375 5.875 -8.894531 6.28125 -8.71875 C 6.695312 -8.550781 7.054688 -8.335938 7.359375 -8.078125 L 7.359375 -8.78125 L 8.75 -8.78125 L 8.75 -2.125 C 8.75 -1.695312 8.851562 -1.414062 9.0625 -1.28125 C 9.269531 -1.15625 9.5 -1.09375 9.75 -1.09375 L 9.421875 0.078125 C 8.335938 0.078125 7.6875 -0.359375 7.46875 -1.234375 C 7.332031 -1.054688 7.175781 -0.878906 7 -0.703125 C 6.820312 -0.523438 6.617188 -0.367188 6.390625 -0.234375 C 6.171875 -0.0976562 5.921875 0.00390625 5.640625 0.078125 C 5.359375 0.160156 5.050781 0.203125 4.71875 0.203125 C 4.164062 0.203125 3.648438 0.0976562 3.171875 -0.109375 C 2.691406 -0.328125 2.273438 -0.632812 1.921875 -1.03125 C 1.566406 -1.425781 1.285156 -1.898438 1.078125 -2.453125 C 0.867188 -3.015625 0.765625 -3.644531 0.765625 -4.34375 Z M 5.046875 -1.15625 C 5.472656 -1.15625 5.878906 -1.253906 6.265625 -1.453125 C 6.648438 -1.648438 6.972656 -1.914062 7.234375 -2.25 L 7.234375 -6.953125 C 6.921875 -7.171875 6.582031 -7.34375 6.21875 -7.46875 C 5.851562 -7.601562 5.46875 -7.671875 5.0625 -7.671875 C 4.65625 -7.671875 4.285156 -7.59375 3.953125 -7.4375 C 3.617188 -7.28125 3.328125 -7.054688 3.078125 -6.765625 C 2.835938 -6.472656 2.648438 -6.125 2.515625 -5.71875 C 2.378906 -5.320312 2.3125 -4.878906 2.3125 -4.390625 C 2.3125 -3.921875 2.378906 -3.484375 2.515625 -3.078125 C 2.648438 -2.679688 2.84375 -2.335938 3.09375 -2.046875 C 3.34375 -1.765625 3.628906 -1.546875 3.953125 -1.390625 C 4.285156 -1.234375 4.648438 -1.15625 5.046875 -1.15625 Z M 5.046875 -1.15625 "/></g></g></g><g fill="#0f2b05" fill-opacity="1"><g transform="translate(162.639233, 16.367412)"><g><path d="M 2.828125 -7.3125 C 3.140625 -7.78125 3.539062 -8.175781 4.03125 -8.5 C 4.519531 -8.820312 5.101562 -8.984375 5.78125 -8.984375 C 6.769531 -8.984375 7.507812 -8.6875 8 -8.09375 C 8.488281 -7.5 8.734375 -6.707031 8.734375 -5.71875 L 8.734375 0 L 7.21875 0 L 7.21875 -5.5625 C 7.21875 -6.195312 7.066406 -6.703125 6.765625 -7.078125 C 6.472656 -7.460938 6.054688 -7.65625 5.515625 -7.65625 C 5.265625 -7.65625 5.015625 -7.601562 4.765625 -7.5 C 4.515625 -7.40625 4.273438 -7.273438 4.046875 -7.109375 C 3.816406 -6.941406 3.601562 -6.742188 3.40625 -6.515625 C 3.207031 -6.296875 3.03125 -6.0625 2.875 -5.8125 L 2.875 0 L 1.34375 0 L 1.34375 -8.78125 L 2.828125 -8.78125 Z M 2.828125 -7.3125 "/></g></g></g><g fill="#0f2b05" fill-opacity="1"><g transform="translate(174.81565, 16.367412)"><g><path d="M 0.765625 -4.34375 C 0.765625 -5 0.863281 -5.609375 1.0625 -6.171875 C 1.269531 -6.742188 1.554688 -7.238281 1.921875 -7.65625 C 2.285156 -8.070312 2.722656 -8.394531 3.234375 -8.625 C 3.742188 -8.863281 4.304688 -8.984375 4.921875 -8.984375 C 5.421875 -8.984375 5.875 -8.894531 6.28125 -8.71875 C 6.695312 -8.550781 7.054688 -8.335938 7.359375 -8.078125 L 7.359375 -8.78125 L 8.75 -8.78125 L 8.75 -2.125 C 8.75 -1.695312 8.851562 -1.414062 9.0625 -1.28125 C 9.269531 -1.15625 9.5 -1.09375 9.75 -1.09375 L 9.421875 0.078125 C 8.335938 0.078125 7.6875 -0.359375 7.46875 -1.234375 C 7.332031 -1.054688 7.175781 -0.878906 7 -0.703125 C 6.820312 -0.523438 6.617188 -0.367188 6.390625 -0.234375 C 6.171875 -0.0976562 5.921875 0.00390625 5.640625 0.078125 C 5.359375 0.160156 5.050781 0.203125 4.71875 0.203125 C 4.164062 0.203125 3.648438 0.0976562 3.171875 -0.109375 C 2.691406 -0.328125 2.273438 -0.632812 1.921875 -1.03125 C 1.566406 -1.425781 1.285156 -1.898438 1.078125 -2.453125 C 0.867188 -3.015625 0.765625 -3.644531 0.765625 -4.34375 Z M 5.046875 -1.15625 C 5.472656 -1.15625 5.878906 -1.253906 6.265625 -1.453125 C 6.648438 -1.648438 6.972656 -1.914062 7.234375 -2.25 L 7.234375 -6.953125 C 6.921875 -7.171875 6.582031 -7.34375 6.21875 -7.46875 C 5.851562 -7.601562 5.46875 -7.671875 5.0625 -7.671875 C 4.65625 -7.671875 4.285156 -7.59375 3.953125 -7.4375 C 3.617188 -7.28125 3.328125 -7.054688 3.078125 -6.765625 C 2.835938 -6.472656 2.648438 -6.125 2.515625 -5.71875 C 2.378906 -5.320312 2.3125 -4.878906 2.3125 -4.390625 C 2.3125 -3.921875 2.378906 -3.484375 2.515625 -3.078125 C 2.648438 -2.679688 2.84375 -2.335938 3.09375 -2.046875 C 3.34375 -1.765625 3.628906 -1.546875 3.953125 -1.390625 C 4.285156 -1.234375 4.648438 -1.15625 5.046875 -1.15625 Z M 5.046875 -1.15625 "/></g></g></g><g fill="#0f2b05" fill-opacity="1"><g transform="translate(187.414233, 16.367412)"><g><path d="M 2.875 0 L 1.34375 0 L 1.34375 -8.78125 L 2.875 -8.78125 Z M 2.109375 -10.28125 C 1.816406 -10.28125 1.566406 -10.382812 1.359375 -10.59375 C 1.148438 -10.800781 1.046875 -11.050781 1.046875 -11.34375 C 1.046875 -11.675781 1.140625 -11.9375 1.328125 -12.125 C 1.523438 -12.320312 1.785156 -12.421875 2.109375 -12.421875 C 2.398438 -12.421875 2.648438 -12.316406 2.859375 -12.109375 C 3.066406 -11.898438 3.171875 -11.644531 3.171875 -11.34375 C 3.171875 -11.019531 3.070312 -10.757812 2.875 -10.5625 C 2.6875 -10.375 2.429688 -10.28125 2.109375 -10.28125 Z M 2.109375 -10.28125 "/></g></g></g><g fill="#0f2b05" fill-opacity="1"><g transform="translate(193.815463, 16.367412)"><g><path d="M 1.234375 -1.96875 C 1.523438 -1.71875 1.890625 -1.507812 2.328125 -1.34375 C 2.773438 -1.1875 3.253906 -1.109375 3.765625 -1.109375 C 4.398438 -1.109375 4.875 -1.210938 5.1875 -1.421875 C 5.507812 -1.628906 5.671875 -1.898438 5.671875 -2.234375 C 5.671875 -2.398438 5.640625 -2.554688 5.578125 -2.703125 C 5.515625 -2.847656 5.398438 -2.988281 5.234375 -3.125 C 5.078125 -3.257812 4.859375 -3.390625 4.578125 -3.515625 C 4.296875 -3.648438 3.929688 -3.796875 3.484375 -3.953125 C 2.648438 -4.234375 2.03125 -4.566406 1.625 -4.953125 C 1.21875 -5.347656 1.015625 -5.890625 1.015625 -6.578125 C 1.015625 -6.910156 1.085938 -7.222656 1.234375 -7.515625 C 1.390625 -7.804688 1.609375 -8.0625 1.890625 -8.28125 C 2.179688 -8.5 2.53125 -8.671875 2.9375 -8.796875 C 3.351562 -8.921875 3.828125 -8.984375 4.359375 -8.984375 C 4.929688 -8.984375 5.429688 -8.921875 5.859375 -8.796875 C 6.296875 -8.679688 6.691406 -8.535156 7.046875 -8.359375 L 6.625 -7.109375 C 6.320312 -7.285156 5.972656 -7.429688 5.578125 -7.546875 C 5.191406 -7.660156 4.765625 -7.71875 4.296875 -7.71875 C 3.703125 -7.71875 3.253906 -7.597656 2.953125 -7.359375 C 2.648438 -7.128906 2.5 -6.875 2.5 -6.59375 C 2.5 -6.457031 2.523438 -6.332031 2.578125 -6.21875 C 2.628906 -6.101562 2.722656 -5.992188 2.859375 -5.890625 C 2.992188 -5.796875 3.171875 -5.695312 3.390625 -5.59375 C 3.617188 -5.488281 3.898438 -5.378906 4.234375 -5.265625 C 4.785156 -5.078125 5.253906 -4.882812 5.640625 -4.6875 C 6.023438 -4.488281 6.332031 -4.269531 6.5625 -4.03125 C 6.800781 -3.800781 6.972656 -3.546875 7.078125 -3.265625 C 7.179688 -2.992188 7.234375 -2.6875 7.234375 -2.34375 C 7.234375 -1.945312 7.144531 -1.59375 6.96875 -1.28125 C 6.800781 -0.96875 6.566406 -0.703125 6.265625 -0.484375 C 5.960938 -0.265625 5.59375 -0.0976562 5.15625 0.015625 C 4.726562 0.140625 4.25 0.203125 3.71875 0.203125 C 3.039062 0.203125 2.4375 0.117188 1.90625 -0.046875 C 1.375 -0.210938 0.9375 -0.429688 0.59375 -0.703125 Z M 1.234375 -1.96875 "/></g></g></g></g></g></g></svg>