<svg xmlns="http://www.w3.org/2000/svg" xmlns:xlink="http://www.w3.org/1999/xlink" width="264" zoomAndPan="magnify" viewBox="0 0 198.75 141.749996" height="188" preserveAspectRatio="xMidYMid meet" version="1.0"><defs><g/></defs><g fill="#0f2b05" fill-opacity="1"><g transform="translate(0.564801, 78.403177)"><g><path d="M 3.84375 -46.53125 C 4.3125 -46.53125 4.6875 -46.984375 4.6875 -47.453125 L 4.6875 -63.75 L 22.28125 -63.75 L 22.28125 0.09375 C 22.28125 0.5625 22.65625 0.9375 23.125 0.9375 L 32.859375 0.9375 C 33.421875 0.9375 33.796875 0.5625 33.796875 0.09375 L 33.796875 -63.75 L 51.296875 -63.75 L 51.296875 -47.453125 C 51.296875 -46.984375 51.671875 -46.53125 52.140625 -46.53125 C 52.703125 -46.53125 53.078125 -46.984375 53.078125 -47.453125 L 53.078125 -64.59375 C 53.078125 -65.0625 52.703125 -65.53125 52.140625 -65.53125 L 3.84375 -65.53125 C 3.375 -65.53125 3 -65.0625 3 -64.59375 L 3 -47.453125 C 3 -46.984375 3.375 -46.53125 3.84375 -46.53125 Z M 32.015625 -63.75 L 32.015625 -0.84375 L 23.96875 -0.84375 L 23.96875 -63.75 Z M 32.015625 -63.75 "/></g></g></g><g fill="#0f2b05" fill-opacity="1"><g transform="translate(56.734367, 78.403177)"><g><path d="M 43.8125 -64.59375 C 43.8125 -65.0625 43.34375 -65.53125 42.875 -65.53125 C 42.40625 -65.53125 42.03125 -65.0625 42.03125 -64.59375 L 42.03125 -19.46875 C 42.03125 -9.171875 33.609375 -0.84375 23.40625 -0.84375 C 18.4375 -0.84375 14.515625 -4.78125 14.515625 -9.734375 L 14.515625 -64.59375 C 14.515625 -65.0625 14.046875 -65.53125 13.578125 -65.53125 L 3.84375 -65.53125 C 3.375 -65.53125 3 -65.0625 3 -64.59375 L 3 -19.46875 C 3 -8.234375 12.078125 0.9375 23.40625 0.9375 C 34.640625 0.9375 43.8125 -8.234375 43.8125 -19.46875 Z M 4.6875 -19.46875 L 4.6875 -63.75 L 12.734375 -63.75 L 12.734375 -9.734375 C 12.734375 -7.015625 13.765625 -4.5 15.453125 -2.625 C 9.078125 -5.609375 4.6875 -11.984375 4.6875 -19.46875 Z M 4.6875 -19.46875 "/></g></g></g><g fill="#0f2b05" fill-opacity="1"><g transform="translate(103.635977, 78.403177)"><g><path d="M 14.515625 -12.546875 C 15.078125 -11.421875 15.90625 -10.296875 16.84375 -9.359375 C 17.03125 -9.171875 17.3125 -9.078125 17.5 -9.078125 C 17.6875 -9.078125 17.96875 -9.171875 18.15625 -9.359375 C 18.4375 -9.734375 18.4375 -10.296875 18.15625 -10.578125 C 15.8125 -12.921875 14.609375 -15.90625 14.609375 -19.1875 C 14.609375 -25.9375 20.03125 -31.359375 26.765625 -31.359375 C 36.140625 -31.359375 43.8125 -39.03125 43.8125 -48.390625 C 43.8125 -57.84375 36.140625 -65.4375 26.765625 -65.4375 L 13.671875 -65.4375 C 13.671875 -65.4375 13.578125 -65.53125 13.578125 -65.53125 L 3.84375 -65.53125 C 3.375 -65.53125 3 -65.0625 3 -64.59375 L 3 0.09375 C 3 0.5625 3.375 0.9375 3.84375 0.9375 L 13.578125 0.9375 C 13.578125 0.9375 13.671875 0.9375 13.671875 0.9375 L 13.578125 0.9375 C 14.046875 0.9375 14.515625 0.5625 14.515625 0 Z M 14.515625 -25.84375 L 14.515625 -63.75 L 26.765625 -63.75 C 29.765625 -63.75 32.203125 -61.21875 32.203125 -58.21875 L 32.203125 -38.65625 C 32.203125 -35.671875 29.765625 -33.140625 26.765625 -33.140625 L 18.4375 -33.140625 C 17.96875 -33.140625 17.59375 -32.765625 17.59375 -32.296875 C 17.59375 -31.828125 17.96875 -31.359375 18.4375 -31.359375 L 19.9375 -31.359375 C 17.6875 -30.140625 15.71875 -28.171875 14.515625 -25.84375 Z M 42.03125 -48.390625 C 42.03125 -42.03125 38.09375 -36.59375 32.578125 -34.265625 C 33.421875 -35.484375 33.984375 -37.0625 33.984375 -38.65625 L 33.984375 -58.21875 C 33.984375 -59.8125 33.421875 -61.3125 32.578125 -62.53125 C 38.09375 -60.28125 42.03125 -54.765625 42.03125 -48.390625 Z M 4.6875 -63.75 L 12.734375 -63.75 L 12.734375 -0.84375 L 4.6875 -0.84375 Z M 4.6875 -63.75 "/></g></g></g><g fill="#0f2b05" fill-opacity="1"><g transform="translate(150.537588, 78.403177)"><g><path d="M 43.71875 -0.1875 L 24.25 -64.875 C 24.15625 -64.875 24.15625 -64.96875 24.15625 -64.96875 C 24.15625 -65.0625 24.15625 -65.0625 24.15625 -65.0625 C 24.0625 -65.0625 24.0625 -65.15625 24.0625 -65.15625 C 23.96875 -65.25 23.96875 -65.25 23.96875 -65.25 C 23.96875 -65.25 23.96875 -65.25 23.875 -65.25 C 23.875 -65.34375 23.875 -65.34375 23.78125 -65.34375 C 23.78125 -65.4375 23.6875 -65.4375 23.59375 -65.4375 C 23.59375 -65.4375 23.5 -65.4375 23.5 -65.4375 C 23.5 -65.4375 23.40625 -65.4375 23.40625 -65.4375 C 23.3125 -65.4375 23.3125 -65.4375 23.3125 -65.4375 C 23.3125 -65.4375 23.3125 -65.4375 23.21875 -65.4375 C 23.21875 -65.4375 23.21875 -65.4375 23.125 -65.4375 C 23.03125 -65.4375 23.03125 -65.4375 22.9375 -65.34375 C 22.84375 -65.34375 22.84375 -65.34375 22.84375 -65.25 C 22.84375 -65.25 22.75 -65.25 22.75 -65.25 C 22.75 -65.25 22.75 -65.25 22.75 -65.15625 C 22.65625 -65.15625 22.65625 -65.15625 22.65625 -65.15625 C 22.65625 -65.0625 22.65625 -65.0625 22.65625 -65.0625 C 22.5625 -65.0625 22.5625 -65.0625 22.5625 -64.96875 C 22.5625 -64.96875 22.5625 -64.96875 22.5625 -64.875 L 3 -0.1875 C 2.8125 0.28125 3.09375 0.75 3.5625 0.9375 C 3.65625 0.9375 3.75 0.9375 3.84375 0.9375 C 4.21875 0.9375 4.59375 0.65625 4.6875 0.28125 L 8.234375 -11.515625 L 28.265625 -11.515625 L 31.828125 0.28125 C 31.921875 0.65625 32.296875 0.9375 32.671875 0.9375 L 42.875 0.9375 C 42.875 0.9375 42.875 0.9375 42.96875 0.9375 C 42.96875 0.9375 42.96875 0.9375 43.0625 0.9375 C 43.0625 0.9375 43.0625 0.9375 43.15625 0.9375 C 43.15625 0.84375 43.25 0.84375 43.25 0.84375 C 43.25 0.84375 43.25 0.84375 43.34375 0.84375 C 43.34375 0.84375 43.4375 0.75 43.4375 0.75 C 43.53125 0.65625 43.53125 0.65625 43.625 0.5625 C 43.625 0.46875 43.71875 0.46875 43.71875 0.46875 C 43.71875 0.375 43.71875 0.375 43.71875 0.375 C 43.71875 0.28125 43.71875 0.28125 43.71875 0.28125 C 43.71875 0.1875 43.8125 0.1875 43.8125 0.1875 C 43.8125 0.09375 43.8125 0.09375 43.8125 0 C 43.8125 -0.09375 43.71875 -0.1875 43.71875 -0.1875 Z M 8.796875 -13.296875 L 18.25 -44.65625 L 27.703125 -13.296875 Z M 33.328125 -0.84375 L 19.1875 -47.734375 L 23.40625 -61.5 L 38.84375 -10.296875 L 41.75 -0.84375 Z M 16.375 -71.328125 C 18.15625 -73.109375 20.96875 -73.109375 22.75 -71.328125 C 23.96875 -70.203125 25.46875 -69.546875 27.140625 -69.546875 C 28.828125 -69.546875 30.421875 -70.203125 31.546875 -71.328125 C 31.921875 -71.703125 31.921875 -72.265625 31.546875 -72.640625 C 31.265625 -72.921875 30.703125 -72.921875 30.328125 -72.640625 C 29.484375 -71.703125 28.359375 -71.328125 27.140625 -71.328125 C 25.9375 -71.328125 24.8125 -71.703125 23.96875 -72.640625 C 21.53125 -75.078125 17.59375 -75.078125 15.171875 -72.640625 C 14.796875 -72.265625 14.796875 -71.703125 15.171875 -71.328125 C 15.453125 -71.046875 16 -71.046875 16.375 -71.328125 Z M 16.375 -71.328125 "/></g></g></g><g fill="#0f2b05" fill-opacity="1"><g transform="translate(0.22244, 110.108013)"><g><path d="M 1.875 -14.5 C 2.445312 -14.5625 3.066406 -14.609375 3.734375 -14.640625 C 4.410156 -14.679688 5.125 -14.703125 5.875 -14.703125 C 6.769531 -14.703125 7.570312 -14.585938 8.28125 -14.359375 C 8.988281 -14.140625 9.582031 -13.835938 10.0625 -13.453125 C 10.550781 -13.066406 10.921875 -12.597656 11.171875 -12.046875 C 11.421875 -11.503906 11.546875 -10.914062 11.546875 -10.28125 C 11.546875 -9.5 11.394531 -8.804688 11.09375 -8.203125 C 10.800781 -7.609375 10.382812 -7.101562 9.84375 -6.6875 C 9.3125 -6.269531 8.671875 -5.953125 7.921875 -5.734375 C 7.179688 -5.523438 6.363281 -5.421875 5.46875 -5.421875 C 4.882812 -5.421875 4.34375 -5.441406 3.84375 -5.484375 L 3.84375 0 L 1.875 0 Z M 5.703125 -7.0625 C 6.953125 -7.0625 7.910156 -7.332031 8.578125 -7.875 C 9.253906 -8.425781 9.59375 -9.171875 9.59375 -10.109375 C 9.59375 -11.015625 9.269531 -11.726562 8.625 -12.25 C 7.976562 -12.78125 7.046875 -13.046875 5.828125 -13.046875 C 5.460938 -13.046875 5.113281 -13.035156 4.78125 -13.015625 C 4.445312 -13.003906 4.132812 -12.984375 3.84375 -12.953125 L 3.84375 -7.171875 C 4.0625 -7.140625 4.328125 -7.113281 4.640625 -7.09375 C 4.953125 -7.070312 5.304688 -7.0625 5.703125 -7.0625 Z M 5.703125 -7.0625 "/></g></g></g><g fill="#0f2b05" fill-opacity="1"><g transform="translate(12.279635, 110.108013)"><g><path d="M 7.515625 -8.984375 C 7.253906 -9.097656 6.941406 -9.15625 6.578125 -9.15625 C 6.191406 -9.15625 5.816406 -9.070312 5.453125 -8.90625 C 5.085938 -8.738281 4.757812 -8.488281 4.46875 -8.15625 C 4.1875 -7.820312 3.957031 -7.394531 3.78125 -6.875 C 3.613281 -6.363281 3.53125 -5.753906 3.53125 -5.046875 L 3.53125 0 L 1.65625 0 L 1.65625 -10.796875 L 3.46875 -10.796875 L 3.46875 -8.453125 C 3.59375 -8.785156 3.757812 -9.109375 3.96875 -9.421875 C 4.175781 -9.742188 4.421875 -10.019531 4.703125 -10.25 C 4.984375 -10.488281 5.3125 -10.679688 5.6875 -10.828125 C 6.0625 -10.972656 6.476562 -11.046875 6.9375 -11.046875 C 7.144531 -11.046875 7.347656 -11.035156 7.546875 -11.015625 C 7.742188 -10.992188 7.921875 -10.960938 8.078125 -10.921875 Z M 7.515625 -8.984375 "/></g></g></g><g fill="#0f2b05" fill-opacity="1"><g transform="translate(20.559881, 110.108013)"><g><path d="M 9.671875 -5.40625 C 9.671875 -5.9375 9.582031 -6.441406 9.40625 -6.921875 C 9.238281 -7.410156 9 -7.835938 8.6875 -8.203125 C 8.375 -8.566406 8.003906 -8.851562 7.578125 -9.0625 C 7.160156 -9.28125 6.703125 -9.390625 6.203125 -9.390625 C 5.109375 -9.390625 4.253906 -9.023438 3.640625 -8.296875 C 3.035156 -7.578125 2.734375 -6.625 2.734375 -5.4375 C 2.734375 -4.894531 2.820312 -4.378906 3 -3.890625 C 3.175781 -3.398438 3.414062 -2.972656 3.71875 -2.609375 C 4.03125 -2.242188 4.398438 -1.953125 4.828125 -1.734375 C 5.253906 -1.515625 5.710938 -1.40625 6.203125 -1.40625 C 6.742188 -1.40625 7.226562 -1.503906 7.65625 -1.703125 C 8.09375 -1.898438 8.457031 -2.171875 8.75 -2.515625 C 9.050781 -2.867188 9.28125 -3.285156 9.4375 -3.765625 C 9.59375 -4.253906 9.671875 -4.800781 9.671875 -5.40625 Z M 0.828125 -5.40625 C 0.828125 -6.269531 0.960938 -7.050781 1.234375 -7.75 C 1.515625 -8.445312 1.894531 -9.039062 2.375 -9.53125 C 2.851562 -10.019531 3.421875 -10.394531 4.078125 -10.65625 C 4.734375 -10.914062 5.441406 -11.046875 6.203125 -11.046875 C 6.953125 -11.046875 7.65625 -10.914062 8.3125 -10.65625 C 8.96875 -10.394531 9.535156 -10.019531 10.015625 -9.53125 C 10.503906 -9.039062 10.890625 -8.453125 11.171875 -7.765625 C 11.453125 -7.078125 11.59375 -6.300781 11.59375 -5.4375 C 11.59375 -4.582031 11.457031 -3.804688 11.1875 -3.109375 C 10.914062 -2.410156 10.535156 -1.8125 10.046875 -1.3125 C 9.566406 -0.8125 8.992188 -0.425781 8.328125 -0.15625 C 7.671875 0.113281 6.960938 0.25 6.203125 0.25 C 5.429688 0.25 4.71875 0.113281 4.0625 -0.15625 C 3.40625 -0.4375 2.835938 -0.828125 2.359375 -1.328125 C 1.878906 -1.828125 1.503906 -2.421875 1.234375 -3.109375 C 0.960938 -3.804688 0.828125 -4.570312 0.828125 -5.40625 Z M 0.828125 -5.40625 "/></g></g></g><g fill="#0f2b05" fill-opacity="1"><g transform="translate(32.96987, 110.108013)"><g><path d="M 5.75 0.25 C 5.082031 0.25 4.453125 0.117188 3.859375 -0.140625 C 3.273438 -0.410156 2.765625 -0.785156 2.328125 -1.265625 C 1.898438 -1.753906 1.5625 -2.335938 1.3125 -3.015625 C 1.0625 -3.703125 0.9375 -4.476562 0.9375 -5.34375 C 0.9375 -6.15625 1.0625 -6.910156 1.3125 -7.609375 C 1.570312 -8.304688 1.921875 -8.90625 2.359375 -9.40625 C 2.796875 -9.914062 3.300781 -10.316406 3.875 -10.609375 C 4.457031 -10.898438 5.078125 -11.046875 5.734375 -11.046875 C 6.453125 -11.046875 7.070312 -10.898438 7.59375 -10.609375 C 8.113281 -10.316406 8.515625 -10.019531 8.796875 -9.71875 L 8.796875 -15.359375 L 10.671875 -15.359375 L 10.671875 -2.609375 C 10.671875 -2.085938 10.796875 -1.742188 11.046875 -1.578125 C 11.304688 -1.421875 11.59375 -1.34375 11.90625 -1.34375 L 11.5 0.109375 C 10.1875 0.109375 9.382812 -0.414062 9.09375 -1.46875 C 8.78125 -1.03125 8.351562 -0.632812 7.8125 -0.28125 C 7.269531 0.0703125 6.582031 0.25 5.75 0.25 Z M 6.171875 -1.40625 C 6.679688 -1.40625 7.164062 -1.523438 7.625 -1.765625 C 8.09375 -2.015625 8.484375 -2.332031 8.796875 -2.71875 L 8.796875 -8.078125 C 8.535156 -8.410156 8.171875 -8.71875 7.703125 -9 C 7.242188 -9.28125 6.722656 -9.421875 6.140625 -9.421875 C 5.648438 -9.421875 5.195312 -9.316406 4.78125 -9.109375 C 4.375 -8.898438 4.023438 -8.613281 3.734375 -8.25 C 3.441406 -7.894531 3.21875 -7.472656 3.0625 -6.984375 C 2.914062 -6.492188 2.84375 -5.96875 2.84375 -5.40625 C 2.84375 -4.820312 2.925781 -4.285156 3.09375 -3.796875 C 3.257812 -3.316406 3.488281 -2.898438 3.78125 -2.546875 C 4.082031 -2.191406 4.4375 -1.910156 4.84375 -1.703125 C 5.257812 -1.503906 5.703125 -1.40625 6.171875 -1.40625 Z M 6.171875 -1.40625 "/></g></g></g><g fill="#0f2b05" fill-opacity="1"><g transform="translate(45.691139, 110.108013)"><g><path d="M 11.3125 0.109375 C 10.65625 0.109375 10.128906 -0.0195312 9.734375 -0.28125 C 9.347656 -0.550781 9.078125 -0.9375 8.921875 -1.4375 C 8.441406 -0.9375 7.882812 -0.53125 7.25 -0.21875 C 6.625 0.09375 5.9375 0.25 5.1875 0.25 C 4.71875 0.25 4.265625 0.175781 3.828125 0.03125 C 3.390625 -0.113281 3 -0.34375 2.65625 -0.65625 C 2.320312 -0.976562 2.054688 -1.394531 1.859375 -1.90625 C 1.660156 -2.414062 1.5625 -3.039062 1.5625 -3.78125 L 1.5625 -10.796875 L 3.421875 -10.796875 L 3.421875 -4.03125 C 3.421875 -3.1875 3.597656 -2.535156 3.953125 -2.078125 C 4.304688 -1.628906 4.835938 -1.40625 5.546875 -1.40625 C 6.128906 -1.40625 6.679688 -1.519531 7.203125 -1.75 C 7.734375 -1.976562 8.207031 -2.285156 8.625 -2.671875 L 8.625 -10.796875 L 10.484375 -10.796875 L 10.484375 -2.796875 C 10.484375 -2.492188 10.515625 -2.25 10.578125 -2.0625 C 10.648438 -1.875 10.742188 -1.726562 10.859375 -1.625 C 10.972656 -1.519531 11.101562 -1.445312 11.25 -1.40625 C 11.40625 -1.363281 11.5625 -1.34375 11.71875 -1.34375 Z M 11.3125 0.109375 "/></g></g></g><g fill="#0f2b05" fill-opacity="1"><g transform="translate(58.225637, 110.108013)"><g><path d="M 2.515625 -13.8125 L 3.953125 -13.8125 L 3.953125 -10.40625 L 6.9375 -10.40625 L 6.9375 -8.78125 L 3.953125 -8.78125 L 3.953125 -3.578125 C 3.953125 -3.171875 3.992188 -2.828125 4.078125 -2.546875 C 4.171875 -2.273438 4.289062 -2.054688 4.4375 -1.890625 C 4.59375 -1.722656 4.773438 -1.597656 4.984375 -1.515625 C 5.203125 -1.441406 5.429688 -1.40625 5.671875 -1.40625 C 6.015625 -1.40625 6.335938 -1.460938 6.640625 -1.578125 C 6.953125 -1.691406 7.242188 -1.820312 7.515625 -1.96875 L 8.03125 -0.484375 C 7.757812 -0.316406 7.382812 -0.15625 6.90625 0 C 6.4375 0.164062 5.945312 0.25 5.4375 0.25 C 4.40625 0.25 3.585938 -0.0859375 2.984375 -0.765625 C 2.378906 -1.441406 2.078125 -2.425781 2.078125 -3.71875 L 2.078125 -8.78125 L 0.203125 -8.78125 L 0.203125 -10.40625 L 2.125 -10.40625 Z M 2.515625 -13.8125 "/></g></g></g><g fill="#0f2b05" fill-opacity="1"><g transform="translate(66.464379, 110.108013)"><g><path d="M 9.671875 -5.40625 C 9.671875 -5.9375 9.582031 -6.441406 9.40625 -6.921875 C 9.238281 -7.410156 9 -7.835938 8.6875 -8.203125 C 8.375 -8.566406 8.003906 -8.851562 7.578125 -9.0625 C 7.160156 -9.28125 6.703125 -9.390625 6.203125 -9.390625 C 5.109375 -9.390625 4.253906 -9.023438 3.640625 -8.296875 C 3.035156 -7.578125 2.734375 -6.625 2.734375 -5.4375 C 2.734375 -4.894531 2.820312 -4.378906 3 -3.890625 C 3.175781 -3.398438 3.414062 -2.972656 3.71875 -2.609375 C 4.03125 -2.242188 4.398438 -1.953125 4.828125 -1.734375 C 5.253906 -1.515625 5.710938 -1.40625 6.203125 -1.40625 C 6.742188 -1.40625 7.226562 -1.503906 7.65625 -1.703125 C 8.09375 -1.898438 8.457031 -2.171875 8.75 -2.515625 C 9.050781 -2.867188 9.28125 -3.285156 9.4375 -3.765625 C 9.59375 -4.253906 9.671875 -4.800781 9.671875 -5.40625 Z M 0.828125 -5.40625 C 0.828125 -6.269531 0.960938 -7.050781 1.234375 -7.75 C 1.515625 -8.445312 1.894531 -9.039062 2.375 -9.53125 C 2.851562 -10.019531 3.421875 -10.394531 4.078125 -10.65625 C 4.734375 -10.914062 5.441406 -11.046875 6.203125 -11.046875 C 6.953125 -11.046875 7.65625 -10.914062 8.3125 -10.65625 C 8.96875 -10.394531 9.535156 -10.019531 10.015625 -9.53125 C 10.503906 -9.039062 10.890625 -8.453125 11.171875 -7.765625 C 11.453125 -7.078125 11.59375 -6.300781 11.59375 -5.4375 C 11.59375 -4.582031 11.457031 -3.804688 11.1875 -3.109375 C 10.914062 -2.410156 10.535156 -1.8125 10.046875 -1.3125 C 9.566406 -0.8125 8.992188 -0.425781 8.328125 -0.15625 C 7.671875 0.113281 6.960938 0.25 6.203125 0.25 C 5.429688 0.25 4.71875 0.113281 4.0625 -0.15625 C 3.40625 -0.4375 2.835938 -0.828125 2.359375 -1.328125 C 1.878906 -1.828125 1.503906 -2.421875 1.234375 -3.109375 C 0.960938 -3.804688 0.828125 -4.570312 0.828125 -5.40625 Z M 0.828125 -5.40625 "/></g></g></g><g fill="#0f2b05" fill-opacity="1"><g transform="translate(78.874369, 110.108013)"><g><path d="M 1.515625 -2.421875 C 1.878906 -2.109375 2.332031 -1.851562 2.875 -1.65625 C 3.425781 -1.46875 4.007812 -1.375 4.625 -1.375 C 5.40625 -1.375 5.992188 -1.5 6.390625 -1.75 C 6.785156 -2.007812 6.984375 -2.335938 6.984375 -2.734375 C 6.984375 -2.941406 6.941406 -3.132812 6.859375 -3.3125 C 6.785156 -3.5 6.644531 -3.675781 6.4375 -3.84375 C 6.238281 -4.007812 5.96875 -4.171875 5.625 -4.328125 C 5.28125 -4.484375 4.832031 -4.660156 4.28125 -4.859375 C 3.25 -5.203125 2.484375 -5.613281 1.984375 -6.09375 C 1.492188 -6.570312 1.25 -7.234375 1.25 -8.078125 C 1.25 -8.492188 1.34375 -8.878906 1.53125 -9.234375 C 1.71875 -9.597656 1.984375 -9.914062 2.328125 -10.1875 C 2.679688 -10.457031 3.109375 -10.664062 3.609375 -10.8125 C 4.117188 -10.96875 4.703125 -11.046875 5.359375 -11.046875 C 6.066406 -11.046875 6.6875 -10.972656 7.21875 -10.828125 C 7.75 -10.679688 8.226562 -10.5 8.65625 -10.28125 L 8.140625 -8.75 C 7.765625 -8.96875 7.335938 -9.144531 6.859375 -9.28125 C 6.378906 -9.414062 5.851562 -9.484375 5.28125 -9.484375 C 4.550781 -9.484375 4 -9.335938 3.625 -9.046875 C 3.257812 -8.765625 3.078125 -8.445312 3.078125 -8.09375 C 3.078125 -7.925781 3.109375 -7.773438 3.171875 -7.640625 C 3.234375 -7.503906 3.347656 -7.375 3.515625 -7.25 C 3.679688 -7.125 3.898438 -7 4.171875 -6.875 C 4.453125 -6.75 4.800781 -6.617188 5.21875 -6.484375 C 5.894531 -6.242188 6.46875 -6.003906 6.9375 -5.765625 C 7.40625 -5.523438 7.785156 -5.257812 8.078125 -4.96875 C 8.367188 -4.675781 8.578125 -4.359375 8.703125 -4.015625 C 8.828125 -3.679688 8.890625 -3.304688 8.890625 -2.890625 C 8.890625 -2.398438 8.785156 -1.960938 8.578125 -1.578125 C 8.367188 -1.191406 8.078125 -0.863281 7.703125 -0.59375 C 7.328125 -0.320312 6.875 -0.113281 6.34375 0.03125 C 5.8125 0.175781 5.21875 0.25 4.5625 0.25 C 3.738281 0.25 3 0.144531 2.34375 -0.0625 C 1.695312 -0.269531 1.160156 -0.539062 0.734375 -0.875 Z M 1.515625 -2.421875 "/></g></g></g><g fill="#0f2b05" fill-opacity="1"><g transform="translate(88.586537, 110.108013)"><g/></g></g><g fill="#0f2b05" fill-opacity="1"><g transform="translate(94.812277, 110.108013)"><g><path d="M 0.9375 -5.34375 C 0.9375 -6.144531 1.0625 -6.894531 1.3125 -7.59375 C 1.5625 -8.289062 1.910156 -8.894531 2.359375 -9.40625 C 2.804688 -9.914062 3.34375 -10.316406 3.96875 -10.609375 C 4.601562 -10.898438 5.296875 -11.046875 6.046875 -11.046875 C 6.671875 -11.046875 7.234375 -10.9375 7.734375 -10.71875 C 8.242188 -10.507812 8.679688 -10.242188 9.046875 -9.921875 L 9.046875 -10.796875 L 10.75 -10.796875 L 10.75 -2.609375 C 10.75 -2.085938 10.878906 -1.742188 11.140625 -1.578125 C 11.398438 -1.421875 11.679688 -1.34375 11.984375 -1.34375 L 11.59375 0.109375 C 10.257812 0.109375 9.453125 -0.429688 9.171875 -1.515625 C 9.003906 -1.296875 8.8125 -1.078125 8.59375 -0.859375 C 8.382812 -0.648438 8.140625 -0.460938 7.859375 -0.296875 C 7.585938 -0.128906 7.28125 0 6.9375 0.09375 C 6.59375 0.195312 6.210938 0.25 5.796875 0.25 C 5.117188 0.25 4.484375 0.117188 3.890625 -0.140625 C 3.304688 -0.410156 2.796875 -0.785156 2.359375 -1.265625 C 1.921875 -1.753906 1.570312 -2.335938 1.3125 -3.015625 C 1.0625 -3.703125 0.9375 -4.476562 0.9375 -5.34375 Z M 6.203125 -1.40625 C 6.734375 -1.40625 7.234375 -1.53125 7.703125 -1.78125 C 8.171875 -2.03125 8.566406 -2.359375 8.890625 -2.765625 L 8.890625 -8.5625 C 8.515625 -8.820312 8.101562 -9.03125 7.65625 -9.1875 C 7.207031 -9.34375 6.734375 -9.421875 6.234375 -9.421875 C 5.734375 -9.421875 5.273438 -9.320312 4.859375 -9.125 C 4.441406 -8.9375 4.082031 -8.664062 3.78125 -8.3125 C 3.488281 -7.957031 3.257812 -7.53125 3.09375 -7.03125 C 2.925781 -6.539062 2.84375 -6 2.84375 -5.40625 C 2.84375 -4.820312 2.925781 -4.28125 3.09375 -3.78125 C 3.257812 -3.289062 3.492188 -2.867188 3.796875 -2.515625 C 4.097656 -2.171875 4.453125 -1.898438 4.859375 -1.703125 C 5.273438 -1.503906 5.722656 -1.40625 6.203125 -1.40625 Z M 6.203125 -1.40625 "/></g></g></g><g fill="#0f2b05" fill-opacity="1"><g transform="translate(107.616563, 110.108013)"><g><path d="M 7.515625 -8.984375 C 7.253906 -9.097656 6.941406 -9.15625 6.578125 -9.15625 C 6.191406 -9.15625 5.816406 -9.070312 5.453125 -8.90625 C 5.085938 -8.738281 4.757812 -8.488281 4.46875 -8.15625 C 4.1875 -7.820312 3.957031 -7.394531 3.78125 -6.875 C 3.613281 -6.363281 3.53125 -5.753906 3.53125 -5.046875 L 3.53125 0 L 1.65625 0 L 1.65625 -10.796875 L 3.46875 -10.796875 L 3.46875 -8.453125 C 3.59375 -8.785156 3.757812 -9.109375 3.96875 -9.421875 C 4.175781 -9.742188 4.421875 -10.019531 4.703125 -10.25 C 4.984375 -10.488281 5.3125 -10.679688 5.6875 -10.828125 C 6.0625 -10.972656 6.476562 -11.046875 6.9375 -11.046875 C 7.144531 -11.046875 7.347656 -11.035156 7.546875 -11.015625 C 7.742188 -10.992188 7.921875 -10.960938 8.078125 -10.921875 Z M 7.515625 -8.984375 "/></g></g></g><g fill="#0f2b05" fill-opacity="1"><g transform="translate(115.896809, 110.108013)"><g><path d="M 2.515625 -13.8125 L 3.953125 -13.8125 L 3.953125 -10.40625 L 6.9375 -10.40625 L 6.9375 -8.78125 L 3.953125 -8.78125 L 3.953125 -3.578125 C 3.953125 -3.171875 3.992188 -2.828125 4.078125 -2.546875 C 4.171875 -2.273438 4.289062 -2.054688 4.4375 -1.890625 C 4.59375 -1.722656 4.773438 -1.597656 4.984375 -1.515625 C 5.203125 -1.441406 5.429688 -1.40625 5.671875 -1.40625 C 6.015625 -1.40625 6.335938 -1.460938 6.640625 -1.578125 C 6.953125 -1.691406 7.242188 -1.820312 7.515625 -1.96875 L 8.03125 -0.484375 C 7.757812 -0.316406 7.382812 -0.15625 6.90625 0 C 6.4375 0.164062 5.945312 0.25 5.4375 0.25 C 4.40625 0.25 3.585938 -0.0859375 2.984375 -0.765625 C 2.378906 -1.441406 2.078125 -2.425781 2.078125 -3.71875 L 2.078125 -8.78125 L 0.203125 -8.78125 L 0.203125 -10.40625 L 2.125 -10.40625 Z M 2.515625 -13.8125 "/></g></g></g><g fill="#0f2b05" fill-opacity="1"><g transform="translate(124.135551, 110.108013)"><g><path d="M 2.84375 -4.625 C 2.96875 -3.613281 3.320312 -2.820312 3.90625 -2.25 C 4.488281 -1.6875 5.253906 -1.40625 6.203125 -1.40625 C 6.828125 -1.40625 7.390625 -1.472656 7.890625 -1.609375 C 8.390625 -1.742188 8.867188 -1.914062 9.328125 -2.125 L 9.765625 -0.515625 C 9.265625 -0.285156 8.703125 -0.101562 8.078125 0.03125 C 7.453125 0.175781 6.753906 0.25 5.984375 0.25 C 5.203125 0.25 4.5 0.125 3.875 -0.125 C 3.257812 -0.382812 2.734375 -0.753906 2.296875 -1.234375 C 1.859375 -1.710938 1.519531 -2.300781 1.28125 -3 C 1.050781 -3.695312 0.9375 -4.5 0.9375 -5.40625 C 0.9375 -6.207031 1.050781 -6.953125 1.28125 -7.640625 C 1.519531 -8.335938 1.851562 -8.9375 2.28125 -9.4375 C 2.707031 -9.945312 3.21875 -10.34375 3.8125 -10.625 C 4.414062 -10.90625 5.082031 -11.046875 5.8125 -11.046875 C 6.59375 -11.046875 7.269531 -10.914062 7.84375 -10.65625 C 8.425781 -10.394531 8.910156 -10.035156 9.296875 -9.578125 C 9.691406 -9.117188 9.984375 -8.582031 10.171875 -7.96875 C 10.367188 -7.363281 10.46875 -6.722656 10.46875 -6.046875 C 10.46875 -5.554688 10.445312 -5.082031 10.40625 -4.625 Z M 5.765625 -9.421875 C 4.953125 -9.421875 4.285156 -9.144531 3.765625 -8.59375 C 3.242188 -8.039062 2.929688 -7.222656 2.828125 -6.140625 L 8.75 -6.140625 C 8.75 -7.191406 8.484375 -8 7.953125 -8.5625 C 7.429688 -9.132812 6.703125 -9.421875 5.765625 -9.421875 Z M 5.765625 -9.421875 "/></g></g></g><g fill="#0f2b05" fill-opacity="1"><g transform="translate(135.424908, 110.108013)"><g><path d="M 1.515625 -2.421875 C 1.878906 -2.109375 2.332031 -1.851562 2.875 -1.65625 C 3.425781 -1.46875 4.007812 -1.375 4.625 -1.375 C 5.40625 -1.375 5.992188 -1.5 6.390625 -1.75 C 6.785156 -2.007812 6.984375 -2.335938 6.984375 -2.734375 C 6.984375 -2.941406 6.941406 -3.132812 6.859375 -3.3125 C 6.785156 -3.5 6.644531 -3.675781 6.4375 -3.84375 C 6.238281 -4.007812 5.96875 -4.171875 5.625 -4.328125 C 5.28125 -4.484375 4.832031 -4.660156 4.28125 -4.859375 C 3.25 -5.203125 2.484375 -5.613281 1.984375 -6.09375 C 1.492188 -6.570312 1.25 -7.234375 1.25 -8.078125 C 1.25 -8.492188 1.34375 -8.878906 1.53125 -9.234375 C 1.71875 -9.597656 1.984375 -9.914062 2.328125 -10.1875 C 2.679688 -10.457031 3.109375 -10.664062 3.609375 -10.8125 C 4.117188 -10.96875 4.703125 -11.046875 5.359375 -11.046875 C 6.066406 -11.046875 6.6875 -10.972656 7.21875 -10.828125 C 7.75 -10.679688 8.226562 -10.5 8.65625 -10.28125 L 8.140625 -8.75 C 7.765625 -8.96875 7.335938 -9.144531 6.859375 -9.28125 C 6.378906 -9.414062 5.851562 -9.484375 5.28125 -9.484375 C 4.550781 -9.484375 4 -9.335938 3.625 -9.046875 C 3.257812 -8.765625 3.078125 -8.445312 3.078125 -8.09375 C 3.078125 -7.925781 3.109375 -7.773438 3.171875 -7.640625 C 3.234375 -7.503906 3.347656 -7.375 3.515625 -7.25 C 3.679688 -7.125 3.898438 -7 4.171875 -6.875 C 4.453125 -6.75 4.800781 -6.617188 5.21875 -6.484375 C 5.894531 -6.242188 6.46875 -6.003906 6.9375 -5.765625 C 7.40625 -5.523438 7.785156 -5.257812 8.078125 -4.96875 C 8.367188 -4.675781 8.578125 -4.359375 8.703125 -4.015625 C 8.828125 -3.679688 8.890625 -3.304688 8.890625 -2.890625 C 8.890625 -2.398438 8.785156 -1.960938 8.578125 -1.578125 C 8.367188 -1.191406 8.078125 -0.863281 7.703125 -0.59375 C 7.328125 -0.320312 6.875 -0.113281 6.34375 0.03125 C 5.8125 0.175781 5.21875 0.25 4.5625 0.25 C 3.738281 0.25 3 0.144531 2.34375 -0.0625 C 1.695312 -0.269531 1.160156 -0.539062 0.734375 -0.875 Z M 1.515625 -2.421875 "/></g></g></g><g fill="#0f2b05" fill-opacity="1"><g transform="translate(145.137076, 110.108013)"><g><path d="M 0.9375 -5.34375 C 0.9375 -6.144531 1.0625 -6.894531 1.3125 -7.59375 C 1.5625 -8.289062 1.910156 -8.894531 2.359375 -9.40625 C 2.804688 -9.914062 3.34375 -10.316406 3.96875 -10.609375 C 4.601562 -10.898438 5.296875 -11.046875 6.046875 -11.046875 C 6.671875 -11.046875 7.234375 -10.9375 7.734375 -10.71875 C 8.242188 -10.507812 8.679688 -10.242188 9.046875 -9.921875 L 9.046875 -10.796875 L 10.75 -10.796875 L 10.75 -2.609375 C 10.75 -2.085938 10.878906 -1.742188 11.140625 -1.578125 C 11.398438 -1.421875 11.679688 -1.34375 11.984375 -1.34375 L 11.59375 0.109375 C 10.257812 0.109375 9.453125 -0.429688 9.171875 -1.515625 C 9.003906 -1.296875 8.8125 -1.078125 8.59375 -0.859375 C 8.382812 -0.648438 8.140625 -0.460938 7.859375 -0.296875 C 7.585938 -0.128906 7.28125 0 6.9375 0.09375 C 6.59375 0.195312 6.210938 0.25 5.796875 0.25 C 5.117188 0.25 4.484375 0.117188 3.890625 -0.140625 C 3.304688 -0.410156 2.796875 -0.785156 2.359375 -1.265625 C 1.921875 -1.753906 1.570312 -2.335938 1.3125 -3.015625 C 1.0625 -3.703125 0.9375 -4.476562 0.9375 -5.34375 Z M 6.203125 -1.40625 C 6.734375 -1.40625 7.234375 -1.53125 7.703125 -1.78125 C 8.171875 -2.03125 8.566406 -2.359375 8.890625 -2.765625 L 8.890625 -8.5625 C 8.515625 -8.820312 8.101562 -9.03125 7.65625 -9.1875 C 7.207031 -9.34375 6.734375 -9.421875 6.234375 -9.421875 C 5.734375 -9.421875 5.273438 -9.320312 4.859375 -9.125 C 4.441406 -8.9375 4.082031 -8.664062 3.78125 -8.3125 C 3.488281 -7.957031 3.257812 -7.53125 3.09375 -7.03125 C 2.925781 -6.539062 2.84375 -6 2.84375 -5.40625 C 2.84375 -4.820312 2.925781 -4.28125 3.09375 -3.78125 C 3.257812 -3.289062 3.492188 -2.867188 3.796875 -2.515625 C 4.097656 -2.171875 4.453125 -1.898438 4.859375 -1.703125 C 5.273438 -1.503906 5.722656 -1.40625 6.203125 -1.40625 Z M 6.203125 -1.40625 "/></g></g></g><g fill="#0f2b05" fill-opacity="1"><g transform="translate(157.941362, 110.108013)"><g><path d="M 3.46875 -8.984375 C 3.851562 -9.566406 4.347656 -10.054688 4.953125 -10.453125 C 5.554688 -10.847656 6.273438 -11.046875 7.109375 -11.046875 C 8.316406 -11.046875 9.222656 -10.675781 9.828125 -9.9375 C 10.429688 -9.207031 10.734375 -8.242188 10.734375 -7.046875 L 10.734375 0 L 8.859375 0 L 8.859375 -6.828125 C 8.859375 -7.617188 8.675781 -8.242188 8.3125 -8.703125 C 7.957031 -9.171875 7.453125 -9.40625 6.796875 -9.40625 C 6.472656 -9.40625 6.160156 -9.34375 5.859375 -9.21875 C 5.554688 -9.101562 5.257812 -8.941406 4.96875 -8.734375 C 4.6875 -8.535156 4.425781 -8.296875 4.1875 -8.015625 C 3.945312 -7.734375 3.726562 -7.441406 3.53125 -7.140625 L 3.53125 0 L 1.65625 0 L 1.65625 -10.796875 L 3.46875 -10.796875 Z M 3.46875 -8.984375 "/></g></g></g><g fill="#0f2b05" fill-opacity="1"><g transform="translate(170.226831, 110.108013)"><g><path d="M 0.9375 -5.34375 C 0.9375 -6.144531 1.0625 -6.894531 1.3125 -7.59375 C 1.5625 -8.289062 1.910156 -8.894531 2.359375 -9.40625 C 2.804688 -9.914062 3.34375 -10.316406 3.96875 -10.609375 C 4.601562 -10.898438 5.296875 -11.046875 6.046875 -11.046875 C 6.671875 -11.046875 7.234375 -10.9375 7.734375 -10.71875 C 8.242188 -10.507812 8.679688 -10.242188 9.046875 -9.921875 L 9.046875 -10.796875 L 10.75 -10.796875 L 10.75 -2.609375 C 10.75 -2.085938 10.878906 -1.742188 11.140625 -1.578125 C 11.398438 -1.421875 11.679688 -1.34375 11.984375 -1.34375 L 11.59375 0.109375 C 10.257812 0.109375 9.453125 -0.429688 9.171875 -1.515625 C 9.003906 -1.296875 8.8125 -1.078125 8.59375 -0.859375 C 8.382812 -0.648438 8.140625 -0.460938 7.859375 -0.296875 C 7.585938 -0.128906 7.28125 0 6.9375 0.09375 C 6.59375 0.195312 6.210938 0.25 5.796875 0.25 C 5.117188 0.25 4.484375 0.117188 3.890625 -0.140625 C 3.304688 -0.410156 2.796875 -0.785156 2.359375 -1.265625 C 1.921875 -1.753906 1.570312 -2.335938 1.3125 -3.015625 C 1.0625 -3.703125 0.9375 -4.476562 0.9375 -5.34375 Z M 6.203125 -1.40625 C 6.734375 -1.40625 7.234375 -1.53125 7.703125 -1.78125 C 8.171875 -2.03125 8.566406 -2.359375 8.890625 -2.765625 L 8.890625 -8.5625 C 8.515625 -8.820312 8.101562 -9.03125 7.65625 -9.1875 C 7.207031 -9.34375 6.734375 -9.421875 6.234375 -9.421875 C 5.734375 -9.421875 5.273438 -9.320312 4.859375 -9.125 C 4.441406 -8.9375 4.082031 -8.664062 3.78125 -8.3125 C 3.488281 -7.957031 3.257812 -7.53125 3.09375 -7.03125 C 2.925781 -6.539062 2.84375 -6 2.84375 -5.40625 C 2.84375 -4.820312 2.925781 -4.28125 3.09375 -3.78125 C 3.257812 -3.289062 3.492188 -2.867188 3.796875 -2.515625 C 4.097656 -2.171875 4.453125 -1.898438 4.859375 -1.703125 C 5.273438 -1.503906 5.722656 -1.40625 6.203125 -1.40625 Z M 6.203125 -1.40625 "/></g></g></g><g fill="#0f2b05" fill-opacity="1"><g transform="translate(183.031117, 110.108013)"><g><path d="M 3.53125 0 L 1.65625 0 L 1.65625 -10.796875 L 3.53125 -10.796875 Z M 2.59375 -12.640625 C 2.238281 -12.640625 1.929688 -12.769531 1.671875 -13.03125 C 1.410156 -13.289062 1.28125 -13.597656 1.28125 -13.953125 C 1.28125 -14.359375 1.398438 -14.675781 1.640625 -14.90625 C 1.878906 -15.144531 2.195312 -15.265625 2.59375 -15.265625 C 2.957031 -15.265625 3.265625 -15.132812 3.515625 -14.875 C 3.773438 -14.625 3.90625 -14.316406 3.90625 -13.953125 C 3.90625 -13.554688 3.785156 -13.238281 3.546875 -13 C 3.316406 -12.757812 3 -12.640625 2.59375 -12.640625 Z M 2.59375 -12.640625 "/></g></g></g><g fill="#0f2b05" fill-opacity="1"><g transform="translate(188.219244, 110.108013)"><g><path d="M 1.515625 -2.421875 C 1.878906 -2.109375 2.332031 -1.851562 2.875 -1.65625 C 3.425781 -1.46875 4.007812 -1.375 4.625 -1.375 C 5.40625 -1.375 5.992188 -1.5 6.390625 -1.75 C 6.785156 -2.007812 6.984375 -2.335938 6.984375 -2.734375 C 6.984375 -2.941406 6.941406 -3.132812 6.859375 -3.3125 C 6.785156 -3.5 6.644531 -3.675781 6.4375 -3.84375 C 6.238281 -4.007812 5.96875 -4.171875 5.625 -4.328125 C 5.28125 -4.484375 4.832031 -4.660156 4.28125 -4.859375 C 3.25 -5.203125 2.484375 -5.613281 1.984375 -6.09375 C 1.492188 -6.570312 1.25 -7.234375 1.25 -8.078125 C 1.25 -8.492188 1.34375 -8.878906 1.53125 -9.234375 C 1.71875 -9.597656 1.984375 -9.914062 2.328125 -10.1875 C 2.679688 -10.457031 3.109375 -10.664062 3.609375 -10.8125 C 4.117188 -10.96875 4.703125 -11.046875 5.359375 -11.046875 C 6.066406 -11.046875 6.6875 -10.972656 7.21875 -10.828125 C 7.75 -10.679688 8.226562 -10.5 8.65625 -10.28125 L 8.140625 -8.75 C 7.765625 -8.96875 7.335938 -9.144531 6.859375 -9.28125 C 6.378906 -9.414062 5.851562 -9.484375 5.28125 -9.484375 C 4.550781 -9.484375 4 -9.335938 3.625 -9.046875 C 3.257812 -8.765625 3.078125 -8.445312 3.078125 -8.09375 C 3.078125 -7.925781 3.109375 -7.773438 3.171875 -7.640625 C 3.234375 -7.503906 3.347656 -7.375 3.515625 -7.25 C 3.679688 -7.125 3.898438 -7 4.171875 -6.875 C 4.453125 -6.75 4.800781 -6.617188 5.21875 -6.484375 C 5.894531 -6.242188 6.46875 -6.003906 6.9375 -5.765625 C 7.40625 -5.523438 7.785156 -5.257812 8.078125 -4.96875 C 8.367188 -4.675781 8.578125 -4.359375 8.703125 -4.015625 C 8.828125 -3.679688 8.890625 -3.304688 8.890625 -2.890625 C 8.890625 -2.398438 8.785156 -1.960938 8.578125 -1.578125 C 8.367188 -1.191406 8.078125 -0.863281 7.703125 -0.59375 C 7.328125 -0.320312 6.875 -0.113281 6.34375 0.03125 C 5.8125 0.175781 5.21875 0.25 4.5625 0.25 C 3.738281 0.25 3 0.144531 2.34375 -0.0625 C 1.695312 -0.269531 1.160156 -0.539062 0.734375 -0.875 Z M 1.515625 -2.421875 "/></g></g></g></svg>